<svg width="50" height="219" viewBox="0 0 50 219" fill="none" xmlns="http://www.w3.org/2000/svg">
<path id="Ellipse 620" d="M0.500317 216.982C0.490601 217.258 0.706444 217.49 0.982414 217.5L5.47963 217.658C5.7556 217.668 5.98719 217.452 5.99691 217.176C6.00663 216.9 5.79079 216.668 5.51481 216.659L1.51729 216.518L1.65803 212.52C1.66775 212.244 1.45191 212.013 1.17593 212.003C0.899963 211.993 0.668369 212.209 0.658653 212.485L0.500317 216.982ZM36.5252 167.449L36.0683 167.246H36.0683L36.5252 167.449ZM36.5252 50.5508L36.9821 50.3478L36.5252 50.5508ZM0.659107 1.36577C1.59302 2.23617 2.51505 3.11658 3.42501 4.00679L4.12432 3.29197C3.20857 2.39611 2.28071 1.51012 1.34089 0.634226L0.659107 1.36577ZM8.7599 9.48654C10.4972 11.3606 12.1842 13.2728 13.8194 15.2211L14.5854 14.5783C12.9395 12.6173 11.2417 10.6928 9.49325 8.8067L8.7599 9.48654ZM18.5883 21.1992C20.1305 23.2346 21.6188 25.3049 23.0519 27.4082L23.8783 26.8452C22.4358 24.7279 20.9377 22.644 19.3854 20.5953L18.5883 21.1992ZM27.1958 33.8347C28.5235 36.0136 29.7941 38.2241 31.0062 40.464L31.8857 39.9881C30.6655 37.7331 29.3864 35.5078 28.0497 33.3143L27.1958 33.8347ZM34.4701 47.2806C35.0179 48.4315 35.5507 49.5893 36.0683 50.7539L36.9821 50.3478C36.461 49.1753 35.9246 48.0095 35.3731 46.8508L34.4701 47.2806ZM36.0683 50.7539C36.5766 51.8975 37.0696 53.0463 37.5473 54.1998L38.4712 53.8172C37.9902 52.6558 37.4939 51.4992 36.9821 50.3478L36.0683 50.7539ZM40.2371 61.1997C41.0747 63.5596 41.8496 65.9368 42.5614 68.3292L43.5199 68.044C42.8031 65.6351 42.0228 63.2414 41.1795 60.8653L40.2371 61.1997ZM44.5119 75.5697C45.0994 78.0015 45.6226 80.4464 46.0812 82.9021L47.0643 82.7185C46.6024 80.2456 46.0755 77.7836 45.4839 75.3348L44.5119 75.5697ZM47.2636 90.3066C47.5926 92.7842 47.8563 95.2705 48.0543 97.7631L49.0512 97.6839C48.8518 95.1737 48.5862 92.67 48.2549 90.175L47.2636 90.3066ZM48.4504 105.251C48.4835 106.5 48.5 107.749 48.5 109H49.5C49.5 107.741 49.4833 106.482 49.4501 105.224L48.4504 105.251ZM48.5 109C48.5 110.251 48.4835 111.5 48.4504 112.749L49.4501 112.776C49.4833 111.518 49.5 110.259 49.5 109H48.5ZM48.0543 120.237C47.8563 122.73 47.5926 125.216 47.2636 127.693L48.2549 127.825C48.5862 125.33 48.8518 122.826 49.0512 120.316L48.0543 120.237ZM46.0812 135.098C45.6226 137.554 45.0994 139.999 44.5119 142.43L45.4839 142.665C46.0755 140.216 46.6024 137.754 47.0643 135.282L46.0812 135.098ZM42.5614 149.671C41.8496 152.063 41.0747 154.44 40.2371 156.8L41.1795 157.135C42.0228 154.759 42.8031 152.365 43.5199 149.956L42.5614 149.671ZM37.5473 163.8C37.0696 164.954 36.5766 166.102 36.0683 167.246L36.9821 167.652C37.4939 166.501 37.9902 165.344 38.4712 164.183L37.5473 163.8ZM36.0683 167.246C35.5507 168.411 35.0179 169.568 34.4701 170.719L35.3731 171.149C35.9246 169.99 36.461 168.825 36.9821 167.652L36.0683 167.246ZM31.0062 177.536C29.7941 179.776 28.5236 181.986 27.1958 184.165L28.0497 184.686C29.3864 182.492 30.6655 180.267 31.8857 178.012L31.0062 177.536ZM23.0519 190.592C21.6188 192.695 20.1305 194.765 18.5883 196.801L19.3854 197.405C20.9377 195.356 22.4358 193.272 23.8783 191.155L23.0519 190.592ZM13.8194 202.779C12.1842 204.727 10.4972 206.639 8.75991 208.513L9.49326 209.193C11.2417 207.307 12.9396 205.383 14.5854 203.422L13.8194 202.779ZM3.42502 213.993C2.51505 214.883 1.59303 215.764 0.659115 216.634L1.3409 217.366C2.28072 216.49 3.20858 215.604 4.12432 214.708L3.42502 213.993ZM0.00062561 216.965C-0.0188065 217.517 0.41288 217.98 0.964821 217.999L9.95925 218.316C10.5112 218.335 10.9744 217.904 10.9938 217.352C11.0132 216.8 10.5816 216.337 10.0296 216.317L2.03457 216.036L2.31606 208.041C2.33549 207.489 1.9038 207.026 1.35186 207.006C0.799919 206.987 0.336731 207.418 0.317295 207.97L0.00062561 216.965ZM36.5252 167.449L35.6114 167.043L36.5252 167.449ZM36.5252 50.5508L37.439 50.1447L36.5252 50.5508ZM0.318211 1.73155C1.24918 2.59919 2.16828 3.47682 3.07536 4.36421L4.47397 2.93456C3.55534 2.03587 2.62455 1.14709 1.68179 0.268451L0.318211 1.73155ZM8.39322 9.82647C10.125 11.6945 11.8065 13.6005 13.4364 15.5426L14.9684 14.2569C13.3172 12.2895 11.614 10.3589 9.85993 8.46677L8.39322 9.82647ZM18.1898 21.5012C19.7269 23.5299 21.2104 25.5933 22.6387 27.6897L24.2915 26.5636C22.8442 24.4394 21.3412 22.3487 19.7839 20.2933L18.1898 21.5012ZM26.7688 34.0949C28.0921 36.2665 29.3585 38.4695 30.5665 40.702L32.3255 39.7502C31.1011 37.4876 29.8178 35.2549 28.4767 33.0542L26.7688 34.0949ZM34.0187 47.4955C34.5646 48.6425 35.0956 49.7964 35.6114 50.957L37.439 50.1447C36.9161 48.9682 36.3779 47.7986 35.8245 46.6359L34.0187 47.4955ZM35.6114 50.957C36.1179 52.0967 36.6093 53.2415 37.0853 54.3911L38.9331 53.6259C38.4506 52.4605 37.9525 51.3 37.439 50.1447L35.6114 50.957ZM39.7659 61.367C40.6006 63.7187 41.3728 66.0877 42.0822 68.4718L43.9991 67.9014C43.2799 65.4842 42.4969 63.0823 41.6507 60.698L39.7659 61.367ZM44.0259 75.6871C44.6113 78.1104 45.1327 80.5467 45.5897 82.9939L47.5558 82.6267C47.0923 80.1452 46.5636 77.6747 45.9699 75.2174L44.0259 75.6871ZM46.7679 90.3724C47.0958 92.8413 47.3586 95.3188 47.5559 97.8027L49.5496 97.6443C49.3495 95.1253 49.083 92.6129 48.7505 90.1092L46.7679 90.3724ZM47.9506 105.264C47.9835 106.508 48 107.754 48 109H50C50 107.736 49.9833 106.473 49.9499 105.211L47.9506 105.264ZM48 109C48 110.246 47.9835 111.492 47.9506 112.736L49.9499 112.789C49.9833 111.527 50 110.264 50 109H48ZM47.5559 120.197C47.3586 122.681 47.0958 125.159 46.7679 127.628L48.7505 127.891C49.083 125.387 49.3495 122.875 49.5496 120.356L47.5559 120.197ZM45.5897 135.006C45.1327 137.453 44.6113 139.89 44.0259 142.313L45.97 142.783C46.5636 140.325 47.0923 137.855 47.5558 135.373L45.5897 135.006ZM42.0822 149.528C41.3728 151.912 40.6006 154.281 39.7659 156.633L41.6507 157.302C42.4969 154.918 43.2799 152.516 43.9991 150.099L42.0822 149.528ZM37.0853 163.609C36.6093 164.758 36.118 165.903 35.6114 167.043L37.439 167.855C37.9525 166.7 38.4506 165.539 38.9331 164.374L37.0853 163.609ZM35.6114 167.043C35.0956 168.204 34.5646 169.358 34.0187 170.505L35.8245 171.364C36.3779 170.201 36.9162 169.032 37.439 167.855L35.6114 167.043ZM30.5665 177.298C29.3585 179.53 28.0921 181.733 26.7688 183.905L28.4767 184.946C29.8178 182.745 31.1012 180.512 32.3255 178.25L30.5665 177.298ZM22.6387 190.31C21.2104 192.407 19.7269 194.47 18.1898 196.499L19.7839 197.707C21.3412 195.651 22.8442 193.561 24.2915 191.436L22.6387 190.31ZM13.4364 202.457C11.8065 204.399 10.125 206.305 8.39323 208.174L9.85994 209.533C11.614 207.641 13.3172 205.71 14.9684 203.743L13.4364 202.457ZM3.07537 213.636C2.16829 214.523 1.24919 215.401 0.318218 216.268L1.6818 217.732C2.62456 216.853 3.55534 215.964 4.47398 215.065L3.07537 213.636Z" fill="#040A1F" fill-opacity="0.6"/>
</svg>
