<?xml version="1.0" encoding="utf-8"?>
<!-- Generator: Adobe Illustrator 27.5.0, SVG Export Plug-In . SVG Version: 6.00 Build 0)  -->
<svg version="1.1" xmlns="http://www.w3.org/2000/svg" xmlns:xlink="http://www.w3.org/1999/xlink" x="0px" y="0px"
	 viewBox="0 0 500 500" style="enable-background:new 0 0 500 500;" xml:space="preserve">
<g id="Background">
	<rect style="fill:#FFFFFF;" width="500" height="500"/>
</g>
<g id="Objects">
	<g>
		<path style="fill:#F3EDFF;" d="M70.686,172.129c33.989-16.123,60.571-37.475,64.928-89.331
			C102.932,72.776,72.864,139.012,70.686,172.129z"/>
		<g>
			<path style="fill:#E7DBFF;" d="M123.905,375.965c-8.72-3.906-21.111,14.315-21.111,14.315s32.514-60.422,17.86-68.606
				c-7.878-4.4-18.062,13.605-18.062,13.605s8.219-57.222-24.629-54.645c-32.849,2.579-15.802,57.818-15.802,57.818
				s-13.213-16.607-19.964-10.62c-11.978,10.621,28.346,64.979,28.346,64.979s-15.083-16.063-23.086-10.845
				c-8.003,5.219,42.367,49.773,42.367,49.773S132.625,379.871,123.905,375.965z"/>
			<g>
				<path style="fill:#F3EDFF;" d="M447.262,304.478c4.925-17.872,8.128-36.223,9.451-54.716
					c2.71-37.869-3.415-79.003-29.465-106.622c-33.902-35.944-89.405-38.218-134.531-58.343
					c-21.814-9.728-41.597-23.908-64.157-31.753c-22.56-7.845-50.094-8.039-67.733,8.066
					c-21.836,19.937-19.874,55.422-36.629,79.785c-10.414,15.142-27.038,24.555-41.293,36.153
					c-14.255,11.598-27.25,28.086-25.352,46.366c3.477,33.488,53.001,49.591,52.165,83.249c-0.615,24.776-29.816,44.263-24.59,68.49
					c5.425,25.146,43.168,31.312,50.481,55.976c0.021,0.07,0.033,0.141,0.053,0.212h238.673
					c11.206-11.401,21.45-23.747,30.602-36.853C424.01,367.174,438.412,336.596,447.262,304.478z"/>
			</g>
			<g id="Artwork_52_10_">
				<path style="fill:#DAD4F8;" d="M252.937,373.424c7.679,8.338,87.121,11.286,80.981-17.177
					c-5.172-23.971-57.72-4.052-75.634,9.023c4.561-7.203,8.83-14.535,12.87-21.779c3.868-6.938,7.495-13.991,10.889-21.146
					c13.466,4.695,85.737-10.484,73.667-35.869c-9.657-20.313-49.64,4.448-67.338,21.677c4.916-11.585,9.247-23.406,13.027-35.407
					c10.391,5.404,86.33-15.266,72.089-40.506c-11.9-21.092-55.221,12.398-69.039,30.379c3.71-12.928,6.81-26.04,9.302-39.269
					c12.27,3.175,82.996-26.804,65.782-49.699c-14.239-18.939-51.475,17.85-63.71,37.834c1.196-7.421,2.198-14.873,3.036-22.342
					c10.386-7.407,33.335-80.548,4.772-82.282c-26.987-1.64-18.139,66.556-9.276,80.435c-0.924,8.443-2.1,16.854-3.494,25.22
					c-5.963-21.045-36.309-70.641-54.809-53.732c-20.833,19.044,40.175,63.005,53.212,62.852
					c-2.454,13.036-5.526,25.939-9.174,38.675c-3.978-22.49-26.994-72.961-47.084-58.932c-22.833,15.947,30.158,66.34,44.009,69.167
					c-4.589,14.574-9.989,28.89-16.242,42.867c-0.1-19.682-20.698-79.552-43.097-66.133c-24.685,14.791,28.824,71.929,40.311,72.279
					c-3.468,7.401-7.163,14.71-11.12,21.898c-3.546,6.442-7.307,12.958-11.317,19.378c2.727-22.923-4.339-77.19-27.535-69.801
					c-26.518,8.45,9.075,72.225,21.486,79.099c-7.626,11.249-16.111,21.944-25.686,31.132c-2.204,2.114,1.433,5.168,3.62,3.069
					C236.963,395.187,245.356,384.582,252.937,373.424z"/>
			</g>
			<path style="fill:#E7DBFF;" d="M444.283,367.999c-10.12-5.723-27.201,14.942-27.201,14.942s46.255-69.501,29.433-81.08
				c-9.043-6.225-23.427,14.428-23.427,14.428s16.461-68.386-23.626-68.996c-40.087-0.609-25.714,68.246-25.714,68.246
				s-14.119-21.619-22.977-15.134c-15.717,11.505,26.953,81.938,26.953,81.938s-16.446-21.173-26.734-15.761
				c-10.288,5.412,45.667,65.11,45.667,65.11S454.402,373.723,444.283,367.999z"/>
			<g id="Artwork_50_5_">
				<g>
					<g>
						<path style="fill:#DAD4F8;" d="M139.105,339.252c-9.611-10.576-17.071-23.775-23.255-36.944
							c-0.648,0.019-1.576,0.022-2.716-0.041c-2.335-0.109-5.575-0.456-9.248-1.228c-3.667-0.775-7.789-1.962-11.974-3.602
							c-4.202-1.64-8.462-3.742-12.555-6.126c-4.08-2.422-7.985-5.126-11.446-8.009c-1.744-1.439-3.363-2.904-4.868-4.374
							c-1.497-1.46-2.843-2.953-4.088-4.363c-1.225-1.42-2.3-2.788-3.242-4.069c-0.92-1.277-1.693-2.434-2.303-3.433
							c-1.236-2-1.831-3.33-1.831-3.33s1.457-0.129,3.79-0.013c1.18,0.049,2.577,0.169,4.139,0.359
							c1.559,0.194,3.283,0.489,5.122,0.859c1.827,0.405,3.791,0.855,5.798,1.473c2.016,0.606,4.086,1.309,6.184,2.136
							c4.197,1.63,8.454,3.744,12.541,6.143c4.067,2.433,7.981,5.142,11.435,8.026c3.476,2.863,6.498,5.895,8.956,8.737
							c1.203,1.393,2.263,2.744,3.18,4.001c-0.44-1.018-0.885-2.028-1.321-3.043c-4.216-9.771-7.804-19.758-10.903-29.881
							c-0.489-0.01-1.052-0.03-1.701-0.061c-2.345-0.107-5.585-0.458-9.252-1.236c-3.671-0.771-7.785-1.953-11.979-3.599
							c-4.188-1.627-8.46-3.739-12.554-6.125c-4.081-2.416-7.992-5.116-11.44-8.003c-1.739-1.434-3.366-2.903-4.868-4.377
							c-1.501-1.455-2.854-2.955-4.09-4.363c-1.232-1.423-2.302-2.788-3.241-4.06c-0.914-1.275-1.694-2.44-2.308-3.443
							c-1.233-1.996-1.828-3.326-1.828-3.326s1.46-0.13,3.786-0.019c1.189,0.057,2.587,0.171,4.139,0.359
							c1.563,0.197,3.285,0.485,5.132,0.864c1.823,0.397,3.782,0.858,5.794,1.465c2.013,0.604,4.086,1.321,6.182,2.143
							c4.194,1.636,8.456,3.747,12.537,6.147c4.073,2.429,7.985,5.134,11.44,8.014c3.465,2.877,6.504,5.904,8.955,8.746
							c1.285,1.488,2.403,2.924,3.374,4.241c-2.798-9.956-5.102-20.039-6.931-30.221c-0.493-0.165-1.054-0.352-1.691-0.587
							c-2.203-0.829-5.186-2.139-8.447-3.985c-3.266-1.845-6.834-4.219-10.326-7.06c-3.503-2.822-6.933-6.117-10.11-9.638
							c-3.164-3.536-6.069-7.295-8.491-11.093c-1.222-1.89-2.33-3.778-3.309-5.636c-0.995-1.846-1.831-3.679-2.583-5.395
							c-0.726-1.732-1.354-3.362-1.853-4.855c-0.491-1.496-0.895-2.843-1.161-3.978c-0.576-2.269-0.735-3.725-0.735-3.725
							s1.422,0.318,3.62,1.131c1.104,0.41,2.389,0.942,3.83,1.603c1.43,0.655,2.978,1.447,4.624,2.36
							c1.616,0.944,3.355,1.974,5.078,3.161c1.733,1.184,3.495,2.489,5.252,3.905c3.497,2.829,6.921,6.13,10.085,9.654
							c3.154,3.545,6.049,7.304,8.475,11.107c2.395,3.708,4.32,7.432,5.791,10.818c-1.225-8.604-2.14-17.26-2.764-25.945
							c-0.941-1.97-1.996-4.487-2.951-7.44c-1.143-3.582-2.148-7.742-2.79-12.197c-0.67-4.463-0.947-9.2-0.893-13.942
							c0.071-4.738,0.485-9.473,1.28-13.914c0.387-2.215,0.86-4.352,1.388-6.382c0.524-2.023,1.163-3.944,1.766-5.72
							c0.631-1.768,1.29-3.388,1.934-4.823c0.65-1.437,1.266-2.683,1.845-3.711c1.11-2.062,1.989-3.232,1.989-3.232
							s0.826,1.197,1.888,3.286c0.54,1.051,1.126,2.313,1.728,3.771c0.606,1.449,1.218,3.095,1.791,4.879
							c0.56,1.791,1.136,3.717,1.598,5.766c0.468,2.043,0.878,4.196,1.2,6.419c0.663,4.455,0.932,9.203,0.878,13.948
							c-0.103,4.73-0.524,9.471-1.31,13.906c-0.779,4.441-1.91,8.567-3.162,12.105c-1.251,3.537-2.636,6.481-3.759,8.543
							c-0.38,0.7-0.728,1.283-1.027,1.771c1.103,13.921,2.975,27.797,5.714,41.477c0.424-2.158,1.09-4.865,2.094-7.856
							c1.203-3.557,2.868-7.504,4.988-11.474c2.118-3.977,4.714-7.956,7.56-11.741c2.882-3.767,6.022-7.33,9.296-10.421
							c1.64-1.561,3.283-3.008,4.919-4.321c1.627-1.319,3.268-2.486,4.81-3.552c1.567-1.041,3.049-1.954,4.422-2.729
							c1.379-0.766,2.621-1.403,3.696-1.894c2.116-0.992,3.503-1.419,3.503-1.419s-0.035,1.457-0.426,3.763
							c-0.185,1.169-0.468,2.536-0.839,4.068c-0.387,1.526-0.869,3.202-1.457,4.983c-0.625,1.766-1.303,3.665-2.147,5.59
							c-0.836,1.916-1.783,3.896-2.844,5.879c-2.119,3.982-4.717,7.964-7.583,11.737c-2.894,3.763-6.046,7.315-9.314,10.412
							c-3.252,3.106-6.623,5.759-9.736,7.863c-3.105,2.1-5.971,3.648-8.094,4.63c-0.748,0.352-1.411,0.637-1.948,0.842
							c2.938,13.67,6.737,27.125,11.563,40.225c0.063-0.437,0.134-0.925,0.223-1.471c0.392-2.312,1.126-5.48,2.323-9.036
							c1.197-3.56,2.861-7.5,4.979-11.472c2.119-3.973,4.706-7.96,7.568-11.749c2.879-3.767,6.024-7.33,9.301-10.428
							c1.62-1.545,3.273-2.998,4.909-4.305c1.625-1.316,3.27-2.484,4.811-3.553c1.565-1.047,3.049-1.967,4.422-2.73
							c1.371-0.765,2.613-1.407,3.692-1.9c2.114-0.98,3.512-1.414,3.512-1.414s-0.039,1.454-0.43,3.767
							c-0.189,1.159-0.473,2.528-0.845,4.062c-0.384,1.528-0.862,3.207-1.463,4.988c-0.605,1.771-1.29,3.672-2.142,5.578
							c-0.83,1.93-1.779,3.909-2.846,5.894c-2.12,3.967-4.712,7.949-7.582,11.726c-2.884,3.764-6.04,7.324-9.309,10.424
							c-3.261,3.102-6.625,5.755-9.732,7.853c-3.111,2.099-5.969,3.641-8.099,4.634c-1.051,0.492-1.928,0.851-2.535,1.086
							c1.878,5.001,3.897,9.953,6.093,14.833c2.685,5.99,5.57,12.106,8.76,18.088c0.064-0.555,0.152-1.223,0.291-1.996
							c0.384-2.321,1.11-5.487,2.323-9.034c1.184-3.564,2.851-7.516,4.977-11.472c2.118-3.989,4.702-7.971,7.571-11.752
							c2.873-3.771,6.01-7.329,9.278-10.427c1.633-1.562,3.292-3.004,4.931-4.315c1.62-1.318,3.271-2.487,4.809-3.553
							c1.554-1.04,3.048-1.961,4.422-2.729c1.377-0.764,2.623-1.399,3.683-1.891c2.126-0.99,3.516-1.42,3.516-1.42
							s-0.042,1.454-0.421,3.77c-0.197,1.155-0.476,2.532-0.852,4.056c-0.377,1.533-0.868,3.203-1.453,4.993
							c-0.615,1.762-1.302,3.675-2.155,5.576c-0.831,1.928-1.773,3.906-2.84,5.889c-2.124,3.978-4.718,7.953-7.581,11.735
							c-2.896,3.755-6.033,7.318-9.315,10.421c-3.257,3.105-6.62,5.746-9.724,7.852c-3.118,2.101-5.973,3.637-8.11,4.629
							c-1.07,0.51-1.96,0.87-2.578,1.103c4.733,8.701,10.157,17.065,16.662,24.221C142.928,338.681,140.493,340.782,139.105,339.252
							z"/>
					</g>
				</g>
			</g>
			<g>
				<g>
					<path style="fill:#FF9494;" d="M321.411,291.161c-9.005,6.763-35.206,26.408-49.728,36.939
						c2.343,16.064,14.729,28.947,14.729,28.947s15.307-18.042,23.477-27.848c8.17-9.806,14.517-17.447,16.472-23.261
						c0.27-0.804-0.287-1.306-0.698-1.557l1.024-0.899c1.248-1.096,1.328-3.012,0.175-4.208c-0.733-0.76-1.783-1.009-2.752-0.783
						l1.82-1.446c1.504-1.195,1.847-3.341,0.79-4.945C325.544,290.312,323.121,289.877,321.411,291.161z"/>
					<path style="fill:#FF9494;" d="M279.948,322.909l19.216-28.747c1.111-1.661,3.34-2.139,5.034-1.079l0,0
						c1.771,1.108,2.272,3.462,1.106,5.196l-11.536,17.158C293.768,315.437,285.959,329.492,279.948,322.909z"/>
				</g>
				<path style="fill:#ED6F70;" d="M303.787,320.999c-0.035,1.335-0.241,2.683-0.681,4.007l-1.558-0.518
					c1.884-5.676-1.16-12.676-3.522-15.756l1.302-1C300.83,309.689,303.937,315.206,303.787,320.999z"/>
				
					<rect x="307.4" y="304.477" transform="matrix(0.7668 -0.6419 0.6419 0.7668 -121.7898 274.5753)" style="fill:#ED6F70;" width="19.12" height="0.821"/>
				
					<rect x="310.699" y="310.533" transform="matrix(0.7127 -0.7015 0.7015 0.7127 -126.3121 313.4758)" style="fill:#ED6F70;" width="17.689" height="0.821"/>
			</g>
			<path style="fill:#98A2D9;" d="M203.347,286.734c12.137,7.806,23.833,24.916,39.997,59.572l29.261-20.436l22.855,25.911
				l-37.955,43.307c-5.931,6.767-16.277,7.303-22.876,1.186l-11.405-10.573C223.222,385.702,207.445,295.34,203.347,286.734z"/>
			<path style="fill:#3C4066;" d="M191.816,244.533c2.425,5.389,12.753,18.591,21.285,24.967l-0.359,1.976
				c0,0-19.399-13.471-22.812-25.237C186.517,234.475,191.816,244.533,191.816,244.533z"/>
			<ellipse style="fill:#454975;" cx="193.106" cy="241.365" rx="12.926" ry="19.028"/>
			<g id="Character_man_flat_1_">
				<g>
					<g>
						<g>
							<g>
								<g>
									<g>
										<path style="fill:#FFBDBD;" d="M212.07,301.73l-63.22,17.37l0.73-52.89l0.02-1.23l0.26-19.59l0.04-0.68
											c0.03-0.62,0.1-1.23,0.21-1.82c1.33-8,8.47-13.98,16.84-13.64c8.98,0.41,15.98,7.97,15.66,16.96l-0.13,4.05l-0.75,23.61
											l-0.27,7.96l1.96,1.27L212.07,301.73z"/>
									</g>
									<path style="fill:#FFA8A8;" d="M183.42,283.1l-0.07,0.47c-16.24-1.05-27-10.93-33.75-18.59l0.26-19.59l0.04-0.68
										c0.03-0.62,0.1-1.23,0.21-1.82l3.01-3.14l29.36,10.51l-0.75,23.61l-0.27,7.96L183.42,283.1z"/>
									<g>
										<path style="fill:#FFFFFF;" d="M182.696,281.345c-5.872,13.887-17.839,11.03-29.254,6.714
											c0.441,5.43,2.709,90.423,12.871,143.604h61.768C225.612,357.842,208.973,310.652,182.696,281.345z"/>
									</g>
									<polygon style="fill:#454975;" points="160.513,290.369 194.783,333.959 181.417,283.733 186.036,286.067 198.651,336.205 
										193.779,337.831 159.509,297.395 									"/>
									<g>
										<path style="fill:#A6AFE2;" d="M190.829,370.84c-0.42-6.129-12.88-11.469-13.315-17.841
											c-2.79-41.194-12.645-68.12-28.067-76.915c-18.05,12.135-21.155,27.092-21.991,36.619
											c-0.512,5.989-10.639,71.376-18.065,118.961h92.043C200.954,417.618,192.576,395.047,190.829,370.84z"/>
									</g>
									<path style="fill:#A6AFE2;" d="M181.591,278.462l-0.174,5.271c12.088,13.152,21.526,36.38,26.827,66.226
										c6.022,33.803,2.323,81.068,2.323,81.068s20.225-0.244,33.14-0.244c-2.137-26.947-8.394-60.184-12.735-80.04
										C226.813,331.721,218.299,276.431,181.591,278.462z"/>
								</g>
							</g>
						</g>
						<g>
							<path style="fill:#EA5455;" d="M140.963,239.051c3.807,10.98,7.837,13.4,11.856,13.003
								c6.937,20.895,20.405,31.059,34.502,30.253c11.432-0.626,14.202-16.505,14.178-31.417c-0.025-3.446-0.173-6.868-0.397-10.016
								c-0.385-5.133-1.308-12.266-2.986-20.399c14.17-24.746-10.319-35.994-31.375-20.223c-0.765-0.857-1.629-1.564-2.588-2.033
								c-4.214-2.215-9.954,0.061-16.332,11.628C137.596,214.017,136.935,227.431,140.963,239.051z"/>
							<path style="fill:#FFBDBD;" d="M201.5,250.89l-0.04,0.02c-10.69,6.83-21.3,1.15-23.73,1.43c-2.39,0.25-8.32,2.45-10.15,1.85
								c-1.84-0.59-4.24-2.75-7.16-9.78c-1.62,4.05-10.68,7.07-13.67-4.52c-3-11.55,6.68-12.57,12.92-0.68
								c-0.61-3.26-0.65-7.94-0.79-14.07c23.53-26.61,35.72-11.77,39.24-4.66c0.13,0.63,0.25,1.25,0.38,1.86
								c0.26,1.37,0.51,2.7,0.73,4c0.99,5.69,1.58,10.68,1.87,14.53C201.33,244.02,201.47,247.44,201.5,250.89z"/>
							<path style="fill:#FFA8A8;" d="M199.23,226.34c-1.38-0.93-3.07-1.75-5.6-1.63c-2.31,0.12-2.72-2.53-0.97-3.16
								c2.25-0.8,4.24-0.26,5.84,0.79C198.76,223.71,199.01,225.04,199.23,226.34z"/>
							<path style="fill:#F18B8B;" d="M157.989,240.775c-0.664-0.84-1.259-1.693-1.946-2.465c-0.668-0.784-1.379-1.522-2.168-2.149
								c-0.775-0.64-1.629-1.188-2.551-1.521c-0.46-0.165-0.946-0.268-1.421-0.221c-0.476,0.027-0.949,0.24-1.272,0.679
								c0.133-0.53,0.63-0.953,1.181-1.111c0.556-0.169,1.149-0.15,1.694-0.024c1.108,0.237,2.084,0.82,2.935,1.502
								c0.846,0.697,1.576,1.516,2.158,2.424C157.21,238.778,157.656,239.765,157.989,240.775z"/>
							<path style="fill:#F18B8B;" d="M157.179,239.384c-0.482-0.377-1.019-0.639-1.578-0.812c-0.558-0.169-1.139-0.275-1.712-0.232
								c-0.572,0.008-1.134,0.171-1.598,0.488c-0.47,0.314-0.807,0.815-1.039,1.382c0.05-0.609,0.329-1.228,0.828-1.655
								c0.495-0.432,1.156-0.62,1.789-0.663c0.64-0.009,1.276,0.105,1.852,0.358C156.294,238.503,156.829,238.874,157.179,239.384z"
								/>
							<path style="fill:none;stroke:#EA5455;stroke-width:0.7;stroke-linecap:round;stroke-miterlimit:10;" d="M188.314,249.686
								c5.727,0.242,8.514-2.04,8.166-3.586c-0.348-1.546-4.971-4.87-8.163-11.064"/>
							<path style="fill:#454975;" d="M177.82,236.889c-0.063,1.632,0.963,2.996,2.291,3.047c1.328,0.051,2.455-1.23,2.518-2.862
								c0.063-1.632-0.963-2.996-2.291-3.047S177.883,235.258,177.82,236.889z"/>
							<path style="fill:#454975;" d="M194.193,236.01c-0.031,1.632,1.022,2.976,2.351,3.001c1.329,0.025,2.431-1.278,2.461-2.911
								c0.031-1.632-1.022-2.976-2.351-3.001C195.326,233.074,194.224,234.377,194.193,236.01z"/>
							<path style="fill:#FFA8A8;" d="M180.29,222.357c-4.459-1.742-8.755,2.584-10.622,5.132c-0.92,1.255-0.156,2.025,1.142,1.039
								c1.596-1.212,5.309-3.065,8.587-2.988C181.715,225.594,182.021,223.033,180.29,222.357z"/>
							<path style="fill:#EA5455;" d="M179.536,221.255c-4.555-1.473-8.585,3.101-10.297,5.756
								c-0.843,1.308-0.035,2.031,1.202,0.969c1.521-1.305,5.117-3.377,8.393-3.495
								C181.152,224.401,181.305,221.827,179.536,221.255z"/>
							<path style="fill:#EA5455;" d="M192.659,220.553c4.107-1.471,7.357,1.549,8.954,4.023c0.844,1.307,0.115,2.535-1.208,1.583
								c-1.627-1.17-3.496-2.611-6.77-2.448C191.319,223.826,190.909,221.18,192.659,220.553z"/>
							<path style="fill:#A43B3B;" d="M199.02,257.08c-0.06,0.4-0.13,0.78-0.22,1.15c-0.33,1.62-0.78,2.96-1.32,4.02
								c-2.53,5-7.01,3.99-10.46-2.12c-0.3-0.53-0.59-1.1-0.87-1.7c-0.04-0.08-0.07-0.16-0.11-0.24
								C192.07,255.69,197.01,255.84,199.02,257.08z"/>
						</g>
						<g>
							<path style="fill:#ED6F70;" d="M274.681,421.927l25.718-2.161c1.388-0.117,2.607-0.97,3.192-2.235l0,0
								c1.124-2.433-0.503-5.245-3.173-5.482l-26.292-2.337L274.681,421.927z"/>
							<path style="fill:#FF9494;" d="M323.837,411.403c-1.449,3.398-4.638,5.686-8.225,6.059c-0.627,0.065-1.272,0.065-1.923,0.01
								l-16.357-1.462l-22.654,5.921l-17.98,3.186l-6.975,0.201l5.365-25.26l3.833,1.026l8.601,2.408
								c3.751,1.05,7.69,1.246,11.527,0.573l11.387-1.998c4.238-0.751,8.597-0.325,12.608,1.239L323.837,411.403z"/>
							
								<rect x="311.022" y="402.179" transform="matrix(0.2937 -0.9559 0.9559 0.2937 -173.4944 588.6553)" style="fill:#ED6F70;" width="1.106" height="19.092"/>
						</g>
						<path style="fill:#A6AFE2;" d="M162.099,294.059c-12.486,22.475,3.384,119.966,3.384,119.966l91.799,15.632l9.987-29.472
							l-76.894-35.741C190.377,364.443,183.586,328.974,162.099,294.059z"/>
					</g>
					<path style="fill:none;stroke:#454975;stroke-width:0.8978;stroke-miterlimit:10;" d="M198.924,419.556l-23.256-4.495
						c-13.824-4.198-24.317-15.513-27.463-29.613l-7.977-35.754"/>
				</g>
			</g>
			<path style="fill:#D14344;" d="M158.792,225.31c-0.177-7.972,2.557-20.016,13.483-28.564l-5.811,2.363
				c-4.862,4.602-12.952,13.249-12.47,26.052L158.792,225.31z"/>
			<g>
				<path style="fill:#454975;" d="M93.23,433.223h341.097c1.031,0,1.876-0.844,1.876-1.875l0,0c0-1.032-0.844-1.875-1.876-1.875
					H93.23c-1.031,0-1.875,0.844-1.875,1.875l0,0C91.354,432.379,92.198,433.223,93.23,433.223z"/>
				<path style="fill:#454975;" d="M57.347,433.223h21.045c1.032,0,1.876-0.844,1.876-1.875l0,0c0-1.032-0.844-1.875-1.876-1.875
					H57.347c-1.031,0-1.875,0.844-1.875,1.875l0,0C55.471,432.379,56.315,433.223,57.347,433.223z"/>
			</g>
			<path style="fill:#454975;" d="M318.062,179.211H213.451c-12.518,0-22.76-10.242-22.76-22.76l0,0
				c0-12.518,10.242-22.76,22.76-22.76h104.611c12.518,0,22.76,10.242,22.76,22.76l0,0
				C340.822,168.969,330.58,179.211,318.062,179.211z"/>
			<path style="fill:#454975;" d="M438.209,273.642h-88.936c-10.642,0-19.35-8.708-19.35-19.35l0,0
				c0-10.642,8.707-19.35,19.35-19.35h88.936c10.642,0,19.35,8.708,19.35,19.35l0,0
				C457.559,264.934,448.852,273.642,438.209,273.642z"/>
			<g>
				<path style="fill:#6F73A6;" d="M424.132,418.334h-95.059c-3.74,0-6.468-3.538-5.517-7.155l17.999-68.451
					c1.117-4.246,4.955-7.206,9.346-7.206h94.603c5.033,0,8.704,4.762,7.424,9.629l-16.814,63.944
					C434.683,414.539,429.761,418.334,424.132,418.334z"/>
				<path style="fill:#454975;" d="M457.93,345.15l-16.82,63.94c-1.43,5.45-6.35,9.24-11.98,9.24h-95.06
					c-3.74,0-6.46-3.53-5.51-7.15l18-68.45c1.11-4.25,4.95-7.21,9.34-7.21h94.6C455.54,335.52,459.21,340.28,457.93,345.15z"/>
			</g>
			<polygon style="fill:#383B5E;" points="397.28,418.33 358.97,418.33 381.11,373.65 			"/>
			<line style="fill:none;stroke:#454975;stroke-miterlimit:10;" x1="412.56" y1="281.77" x2="412.56" y2="327.297"/>
			<line style="fill:none;stroke:#454975;stroke-miterlimit:10;" x1="235.692" y1="183.859" x2="220.628" y2="210.534"/>
			<g id="Text_1_">
				<g>
					<rect x="369.598" y="243.117" style="fill:#FFFFFF;" width="67.262" height="4.081"/>
					<rect x="353.478" y="243.117" style="fill:#FFFFFF;" width="12.358" height="4.081"/>
					<rect x="390.557" y="252.557" style="fill:#FFFFFF;" width="31.815" height="4.081"/>
					<rect x="425.381" y="252.557" style="fill:#FFFFFF;" width="11.478" height="4.081"/>
					<rect x="353.478" y="252.557" style="fill:#FFFFFF;" width="34.177" height="4.081"/>
					<rect x="377.444" y="261.998" style="fill:#FFFFFF;" width="27.708" height="4.081"/>
					<rect x="353.478" y="261.998" style="fill:#FFFFFF;" width="20.849" height="4.081"/>
				</g>
			</g>
			<g id="Text_2_">
				<g>
					<rect x="241.905" y="145.028" style="fill:#FFFFFF;" width="67.262" height="4.081"/>
					<rect x="225.786" y="145.028" style="fill:#FFFFFF;" width="12.358" height="4.081"/>
					<rect x="262.864" y="154.468" style="fill:#FFFFFF;" width="31.815" height="4.081"/>
					<rect x="297.689" y="154.468" style="fill:#FFFFFF;" width="11.478" height="4.081"/>
					<rect x="225.786" y="154.468" style="fill:#FFFFFF;" width="34.177" height="4.081"/>
					<rect x="249.752" y="163.909" style="fill:#FFFFFF;" width="27.708" height="4.081"/>
					<rect x="225.786" y="163.909" style="fill:#FFFFFF;" width="20.849" height="4.081"/>
				</g>
			</g>
			<polygon style="fill:#383B5E;" points="418.111,429.479 273.686,429.479 273.686,421.931 325.914,418.797 355.232,418.797 
				355.232,425.365 416.591,425.365 			"/>
			<polygon style="fill:#6F73A6;" points="381.113,373.647 413.402,373.647 418.111,429.479 368.781,429.479 			"/>
			<polygon style="fill:#2C2E4A;" points="355.232,418.797 355.232,425.365 326.101,425.365 325.914,418.797 			"/>
			<g>
				<g>
					<polygon style="fill:#303352;" points="434.586,400.158 427.737,400.158 428.305,397.986 435.155,397.986 					"/>
					<polygon style="fill:#FFFFFF;" points="434.433,399.105 428.44,399.105 428.714,398.061 434.707,398.061 					"/>
				</g>
				<g>
					<polygon style="fill:#303352;" points="433.35,404.876 426.501,404.876 427.07,402.704 433.919,402.704 					"/>
					<polygon style="fill:#FFFFFF;" points="433.198,403.823 427.205,403.823 427.478,402.779 433.471,402.779 					"/>
				</g>
				<g>
					<polygon style="fill:#303352;" points="432.115,409.593 425.266,409.593 425.834,407.421 432.684,407.421 					"/>
					<polygon style="fill:#FFFFFF;" points="431.962,408.54 425.969,408.54 426.243,407.496 432.236,407.496 					"/>
				</g>
			</g>
			<ellipse style="fill:#454975;" cx="152.719" cy="241.365" rx="12.926" ry="19.028"/>
			<ellipse style="fill:#5D6191;" cx="150.955" cy="241.013" rx="9.184" ry="15.163"/>
			<path style="fill:#303352;" d="M156.29,225.037h-6.624c-0.377,0-0.685-0.309-0.685-0.685l0,0c0-0.377,0.309-0.685,0.685-0.685
				h6.624c0.377,0,0.685,0.308,0.685,0.685l0,0C156.975,224.728,156.667,225.037,156.29,225.037z"/>
			<path style="fill:#454975;" d="M218.242,269.553c0,3.048-2.471,5.52-5.52,5.52s-5.52-2.471-5.52-5.52s2.471-5.52,5.52-5.52
				S218.242,266.505,218.242,269.553z"/>
			<path style="fill:#51568A;" d="M214.705,267.204c0,1.443-1.17,2.613-2.613,2.613c-1.443,0-2.613-1.17-2.613-2.613
				c0-1.443,1.17-2.613,2.613-2.613C213.535,264.592,214.705,265.762,214.705,267.204z"/>
			<path style="fill:#51568A;" d="M156.115,224.377c-0.069-9.456,6.766-22.741,16.16-27.631l-6.344,2.297
				c-13.061,6.636-15.944,18.667-16.155,25.302L156.115,224.377z"/>
			<path style="fill:#FFFFFF;" d="M199.02,257.08c-0.06,0.4-0.13,0.78-0.22,1.15c-1.59,0.3-3.28,0.49-5.03,0.58
				c-2.7,0.14-5.29-0.01-7.62-0.38c-0.04-0.08-0.07-0.16-0.11-0.24C192.07,255.69,197.01,255.84,199.02,257.08z"/>
			<path style="fill:#BB4344;" d="M197.48,262.25c-2.53,5-7.01,3.99-10.46-2.12c0.66-0.08,1.34-0.12,2.04-0.12
				C192.34,260.01,195.32,260.87,197.48,262.25z"/>
			
				<rect x="193.397" y="340.179" transform="matrix(0.9781 -0.2083 0.2083 0.9781 -68.6315 49.2743)" style="fill:#EA5455;" width="12.461" height="20.612"/>
			<path style="fill:#DAD4F8;" d="M195.875,336.076L195.875,336.076c0.774-0.26,1.591,0.259,1.684,1.07l0.41,3.56l-1.156,0.215
				l-1.654-3.01C194.774,337.209,195.117,336.331,195.875,336.076z"/>
			<g>
				<g id="email-outline_1_">
					<g>
						<g>
							<path style="fill:#454975;" d="M410.998,172.032h-33.785c-3.998,0-7.24,3.241-7.24,7.24v24.132c0,3.998,3.241,7.24,7.24,7.24
								h33.785c3.998,0,7.24-3.241,7.24-7.24v-24.132C418.238,175.273,414.996,172.032,410.998,172.032z M409.381,176.858
								l-15.276,11.463l-15.275-11.463H409.381z M410.998,205.817h-33.785c-1.333,0-2.413-1.08-2.413-2.413v-23.529l17.858,13.393
								c0.418,0.313,0.926,0.483,1.448,0.483c0.522,0,1.03-0.169,1.448-0.483l17.858-13.393v23.529
								C413.411,204.736,412.331,205.817,410.998,205.817z"/>
						</g>
					</g>
				</g>
				<circle style="fill:#EA5455;" cx="413.462" cy="176.161" r="7.622"/>
			</g>
			<g id="phone-call-outline_1_">
				<g>
					<g>
						<path style="fill:#EA5455;" d="M114.49,146.62c4.34,0,7.859,3.519,7.859,7.859c0,1.447,1.173,2.62,2.62,2.62
							c1.447,0,2.62-1.173,2.62-2.62c0-7.234-5.865-13.099-13.099-13.099c-1.447,0-2.62,1.173-2.62,2.62
							C111.87,145.447,113.043,146.62,114.49,146.62z"/>
						<path style="fill:#EA5455;" d="M114.49,136.141c10.128,0,18.338,8.21,18.338,18.338c0,1.447,1.173,2.62,2.62,2.62
							c1.447,0,2.62-1.173,2.62-2.62c0-13.022-10.556-23.578-23.578-23.578c-1.447,0-2.62,1.173-2.62,2.62
							C111.87,134.968,113.043,136.141,114.49,136.141z"/>
						<path style="fill:#454975;" d="M137.413,167.342c-0.293-0.855-1.006-1.499-1.886-1.703l-15.719-3.589
							c-0.867-0.197-1.774,0.06-2.41,0.681c-0.367,0.341-0.393,0.367-2.096,3.615c-5.65-2.604-10.178-7.15-12.758-12.811
							c3.327-1.677,3.353-1.677,3.694-2.07c0.621-0.636,0.878-1.543,0.681-2.41l-3.589-15.535c-0.204-0.88-0.848-1.593-1.703-1.886
							c-0.612-0.219-1.244-0.377-1.886-0.472c-0.662-0.154-1.338-0.241-2.017-0.262c-6.656,0-12.051,5.395-12.051,12.051
							c0.029,22.27,18.075,40.315,40.344,40.344c6.656,0,12.051-5.395,12.051-12.051l0,0c0.001-0.667-0.052-1.333-0.157-1.991
							C137.801,168.604,137.634,167.964,137.413,167.342z M126.017,178.057c-19.382-0.014-35.09-15.723-35.105-35.105
							c0.014-3.756,3.055-6.797,6.811-6.811h0.864l2.803,12.156l-1.415,0.733c-2.253,1.179-4.035,2.122-3.091,4.166
							c3.11,8.805,10.018,15.742,18.81,18.888c2.201,0.891,3.065-0.76,4.244-3.039l0.76-1.441l12.129,2.777v0.865
							C132.814,175.001,129.773,178.042,126.017,178.057z"/>
					</g>
				</g>
			</g>
			<line style="fill:none;stroke:#454975;stroke-miterlimit:10;" x1="416.124" y1="275.209" x2="416.124" y2="289.426"/>
		</g>
		
			<ellipse transform="matrix(0.7071 -0.7071 0.7071 0.7071 -10.6719 155.5942)" style="fill:#DAD4F8;" cx="182.483" cy="90.679" rx="9.451" ry="9.451"/>
		<path style="fill:#DAD4F8;" d="M263.761,95.594c0,2.505-2.031,4.537-4.536,4.537c-2.505,0-4.536-2.031-4.536-4.537
			c0-2.505,2.031-4.536,4.536-4.536C261.73,91.057,263.761,93.088,263.761,95.594z"/>
		<path style="fill:none;stroke:#DAD4F8;stroke-width:2;stroke-miterlimit:10;" d="M158.667,150.409
			c0,2.297-1.862,4.158-4.158,4.158c-2.297,0-4.159-1.862-4.159-4.158c0-2.297,1.862-4.158,4.159-4.158
			C156.805,146.251,158.667,148.113,158.667,150.409z"/>
		<path style="fill:#F3EDFF;" d="M266.451,63.855c41.654,23.2,152.38,27.945,180.852,97.017
			C452.576,112.364,384.558,83.364,266.451,63.855z"/>
	</g>
</g>
</svg>
