<svg xmlns="http://www.w3.org/2000/svg" width="178" height="78" viewBox="0 0 178 78">
  <defs>
    <style>
      .cls-1 {
        fill: #9697a3;
      }
    </style>
  </defs>
  <g id="Group_32217" data-name="Group 32217" transform="translate(2324 -921) rotate(90)">
    <circle id="Ellipse_6962" data-name="Ellipse 6962" class="cls-1" cx="1.5" cy="1.5" r="1.5" transform="translate(921 2146)"/>
    <circle id="Ellipse_6968" data-name="Ellipse 6968" class="cls-1" cx="1.5" cy="1.5" r="1.5" transform="translate(921 2160)"/>
    <circle id="Ellipse_6974" data-name="Ellipse 6974" class="cls-1" cx="1.5" cy="1.5" r="1.5" transform="translate(921 2174)"/>
    <circle id="Ellipse_7007" data-name="Ellipse 7007" class="cls-1" cx="1.5" cy="1.5" r="1.5" transform="translate(921 2214)"/>
    <circle id="Ellipse_7025" data-name="Ellipse 7025" class="cls-1" cx="1.5" cy="1.5" r="1.5" transform="translate(921 2255)"/>
    <circle id="Ellipse_7043" data-name="Ellipse 7043" class="cls-1" cx="1.5" cy="1.5" r="1.5" transform="translate(921 2295)"/>
    <circle id="Ellipse_6980" data-name="Ellipse 6980" class="cls-1" cx="1.5" cy="1.5" r="1.5" transform="translate(921 2187)"/>
    <circle id="Ellipse_7008" data-name="Ellipse 7008" class="cls-1" cx="1.5" cy="1.5" r="1.5" transform="translate(921 2227)"/>
    <circle id="Ellipse_7026" data-name="Ellipse 7026" class="cls-1" cx="1.5" cy="1.5" r="1.5" transform="translate(921 2268)"/>
    <circle id="Ellipse_7044" data-name="Ellipse 7044" class="cls-1" cx="1.5" cy="1.5" r="1.5" transform="translate(921 2308)"/>
    <circle id="Ellipse_6986" data-name="Ellipse 6986" class="cls-1" cx="1.5" cy="1.5" r="1.5" transform="translate(921 2200)"/>
    <circle id="Ellipse_7009" data-name="Ellipse 7009" class="cls-1" cx="1.5" cy="1.5" r="1.5" transform="translate(921 2240)"/>
    <circle id="Ellipse_7027" data-name="Ellipse 7027" class="cls-1" cx="1.5" cy="1.5" r="1.5" transform="translate(921 2281)"/>
    <circle id="Ellipse_7045" data-name="Ellipse 7045" class="cls-1" cx="1.5" cy="1.5" r="1.5" transform="translate(921 2321)"/>
    <circle id="Ellipse_6967" data-name="Ellipse 6967" class="cls-1" cx="1.5" cy="1.5" r="1.5" transform="translate(966 2146)"/>
    <circle id="Ellipse_6969" data-name="Ellipse 6969" class="cls-1" cx="1.5" cy="1.5" r="1.5" transform="translate(966 2160)"/>
    <circle id="Ellipse_6975" data-name="Ellipse 6975" class="cls-1" cx="1.5" cy="1.5" r="1.5" transform="translate(966 2174)"/>
    <circle id="Ellipse_6996" data-name="Ellipse 6996" class="cls-1" cx="1.5" cy="1.5" r="1.5" transform="translate(966 2214)"/>
    <circle id="Ellipse_7014" data-name="Ellipse 7014" class="cls-1" cx="1.5" cy="1.5" r="1.5" transform="translate(966 2255)"/>
    <circle id="Ellipse_7032" data-name="Ellipse 7032" class="cls-1" cx="1.5" cy="1.5" r="1.5" transform="translate(966 2295)"/>
    <circle id="Ellipse_6981" data-name="Ellipse 6981" class="cls-1" cx="1.5" cy="1.5" r="1.5" transform="translate(966 2187)"/>
    <circle id="Ellipse_6997" data-name="Ellipse 6997" class="cls-1" cx="1.5" cy="1.5" r="1.5" transform="translate(966 2227)"/>
    <circle id="Ellipse_7015" data-name="Ellipse 7015" class="cls-1" cx="1.5" cy="1.5" r="1.5" transform="translate(966 2268)"/>
    <circle id="Ellipse_7033" data-name="Ellipse 7033" class="cls-1" cx="1.5" cy="1.5" r="1.5" transform="translate(966 2308)"/>
    <circle id="Ellipse_6987" data-name="Ellipse 6987" class="cls-1" cx="1.5" cy="1.5" r="1.5" transform="translate(966 2200)"/>
    <circle id="Ellipse_6998" data-name="Ellipse 6998" class="cls-1" cx="1.5" cy="1.5" r="1.5" transform="translate(966 2240)"/>
    <circle id="Ellipse_7016" data-name="Ellipse 7016" class="cls-1" cx="1.5" cy="1.5" r="1.5" transform="translate(966 2281)"/>
    <circle id="Ellipse_7034" data-name="Ellipse 7034" class="cls-1" cx="1.5" cy="1.5" r="1.5" transform="translate(966 2321)"/>
    <circle id="Ellipse_6963" data-name="Ellipse 6963" class="cls-1" cx="1.5" cy="1.5" r="1.5" transform="translate(936 2146)"/>
    <circle id="Ellipse_6970" data-name="Ellipse 6970" class="cls-1" cx="1.5" cy="1.5" r="1.5" transform="translate(936 2160)"/>
    <circle id="Ellipse_6976" data-name="Ellipse 6976" class="cls-1" cx="1.5" cy="1.5" r="1.5" transform="translate(936 2174)"/>
    <circle id="Ellipse_7004" data-name="Ellipse 7004" class="cls-1" cx="1.5" cy="1.5" r="1.5" transform="translate(936 2214)"/>
    <circle id="Ellipse_7022" data-name="Ellipse 7022" class="cls-1" cx="1.5" cy="1.5" r="1.5" transform="translate(936 2255)"/>
    <circle id="Ellipse_7040" data-name="Ellipse 7040" class="cls-1" cx="1.5" cy="1.5" r="1.5" transform="translate(936 2295)"/>
    <circle id="Ellipse_6982" data-name="Ellipse 6982" class="cls-1" cx="1.5" cy="1.5" r="1.5" transform="translate(936 2187)"/>
    <circle id="Ellipse_7005" data-name="Ellipse 7005" class="cls-1" cx="1.5" cy="1.5" r="1.5" transform="translate(936 2227)"/>
    <circle id="Ellipse_7023" data-name="Ellipse 7023" class="cls-1" cx="1.5" cy="1.5" r="1.5" transform="translate(936 2268)"/>
    <circle id="Ellipse_7041" data-name="Ellipse 7041" class="cls-1" cx="1.5" cy="1.5" r="1.5" transform="translate(936 2308)"/>
    <circle id="Ellipse_6988" data-name="Ellipse 6988" class="cls-1" cx="1.5" cy="1.5" r="1.5" transform="translate(936 2200)"/>
    <circle id="Ellipse_7006" data-name="Ellipse 7006" class="cls-1" cx="1.5" cy="1.5" r="1.5" transform="translate(936 2240)"/>
    <circle id="Ellipse_7024" data-name="Ellipse 7024" class="cls-1" cx="1.5" cy="1.5" r="1.5" transform="translate(936 2281)"/>
    <circle id="Ellipse_7042" data-name="Ellipse 7042" class="cls-1" cx="1.5" cy="1.5" r="1.5" transform="translate(936 2321)"/>
    <circle id="Ellipse_6966" data-name="Ellipse 6966" class="cls-1" cx="1.5" cy="1.5" r="1.5" transform="translate(981 2146)"/>
    <circle id="Ellipse_6971" data-name="Ellipse 6971" class="cls-1" cx="1.5" cy="1.5" r="1.5" transform="translate(981 2160)"/>
    <circle id="Ellipse_6977" data-name="Ellipse 6977" class="cls-1" cx="1.5" cy="1.5" r="1.5" transform="translate(981 2174)"/>
    <circle id="Ellipse_6994" data-name="Ellipse 6994" class="cls-1" cx="1.5" cy="1.5" r="1.5" transform="translate(981 2214)"/>
    <circle id="Ellipse_7012" data-name="Ellipse 7012" class="cls-1" cx="1.5" cy="1.5" r="1.5" transform="translate(981 2255)"/>
    <circle id="Ellipse_7030" data-name="Ellipse 7030" class="cls-1" cx="1.5" cy="1.5" r="1.5" transform="translate(981 2295)"/>
    <circle id="Ellipse_6983" data-name="Ellipse 6983" class="cls-1" cx="1.5" cy="1.5" r="1.5" transform="translate(981 2187)"/>
    <circle id="Ellipse_6995" data-name="Ellipse 6995" class="cls-1" cx="1.5" cy="1.5" r="1.5" transform="translate(981 2227)"/>
    <circle id="Ellipse_7013" data-name="Ellipse 7013" class="cls-1" cx="1.5" cy="1.5" r="1.5" transform="translate(981 2268)"/>
    <circle id="Ellipse_7031" data-name="Ellipse 7031" class="cls-1" cx="1.5" cy="1.5" r="1.5" transform="translate(981 2308)"/>
    <circle id="Ellipse_6989" data-name="Ellipse 6989" class="cls-1" cx="1.5" cy="1.5" r="1.5" transform="translate(981 2200)"/>
    <circle id="Ellipse_6999" data-name="Ellipse 6999" class="cls-1" cx="1.5" cy="1.5" r="1.5" transform="translate(981 2240)"/>
    <circle id="Ellipse_7017" data-name="Ellipse 7017" class="cls-1" cx="1.5" cy="1.5" r="1.5" transform="translate(981 2281)"/>
    <circle id="Ellipse_7035" data-name="Ellipse 7035" class="cls-1" cx="1.5" cy="1.5" r="1.5" transform="translate(981 2321)"/>
    <circle id="Ellipse_6964" data-name="Ellipse 6964" class="cls-1" cx="1.5" cy="1.5" r="1.5" transform="translate(951 2146)"/>
    <circle id="Ellipse_6972" data-name="Ellipse 6972" class="cls-1" cx="1.5" cy="1.5" r="1.5" transform="translate(951 2160)"/>
    <circle id="Ellipse_6978" data-name="Ellipse 6978" class="cls-1" cx="1.5" cy="1.5" r="1.5" transform="translate(951 2174)"/>
    <circle id="Ellipse_7001" data-name="Ellipse 7001" class="cls-1" cx="1.5" cy="1.5" r="1.5" transform="translate(951 2214)"/>
    <circle id="Ellipse_7019" data-name="Ellipse 7019" class="cls-1" cx="1.5" cy="1.5" r="1.5" transform="translate(951 2255)"/>
    <circle id="Ellipse_7037" data-name="Ellipse 7037" class="cls-1" cx="1.5" cy="1.5" r="1.5" transform="translate(951 2295)"/>
    <circle id="Ellipse_6984" data-name="Ellipse 6984" class="cls-1" cx="1.5" cy="1.5" r="1.5" transform="translate(951 2187)"/>
    <circle id="Ellipse_7002" data-name="Ellipse 7002" class="cls-1" cx="1.5" cy="1.5" r="1.5" transform="translate(951 2227)"/>
    <circle id="Ellipse_7020" data-name="Ellipse 7020" class="cls-1" cx="1.5" cy="1.5" r="1.5" transform="translate(951 2268)"/>
    <circle id="Ellipse_7038" data-name="Ellipse 7038" class="cls-1" cx="1.5" cy="1.5" r="1.5" transform="translate(951 2308)"/>
    <circle id="Ellipse_6990" data-name="Ellipse 6990" class="cls-1" cx="1.5" cy="1.5" r="1.5" transform="translate(951 2200)"/>
    <circle id="Ellipse_7003" data-name="Ellipse 7003" class="cls-1" cx="1.5" cy="1.5" r="1.5" transform="translate(951 2240)"/>
    <circle id="Ellipse_7021" data-name="Ellipse 7021" class="cls-1" cx="1.5" cy="1.5" r="1.5" transform="translate(951 2281)"/>
    <circle id="Ellipse_7039" data-name="Ellipse 7039" class="cls-1" cx="1.5" cy="1.5" r="1.5" transform="translate(951 2321)"/>
    <circle id="Ellipse_6965" data-name="Ellipse 6965" class="cls-1" cx="1.5" cy="1.5" r="1.5" transform="translate(996 2146)"/>
    <circle id="Ellipse_6973" data-name="Ellipse 6973" class="cls-1" cx="1.5" cy="1.5" r="1.5" transform="translate(996 2160)"/>
    <circle id="Ellipse_6979" data-name="Ellipse 6979" class="cls-1" cx="1.5" cy="1.5" r="1.5" transform="translate(996 2174)"/>
    <circle id="Ellipse_6992" data-name="Ellipse 6992" class="cls-1" cx="1.5" cy="1.5" r="1.5" transform="translate(996 2214)"/>
    <circle id="Ellipse_7010" data-name="Ellipse 7010" class="cls-1" cx="1.5" cy="1.5" r="1.5" transform="translate(996 2255)"/>
    <circle id="Ellipse_7028" data-name="Ellipse 7028" class="cls-1" cx="1.5" cy="1.5" r="1.5" transform="translate(996 2295)"/>
    <circle id="Ellipse_6985" data-name="Ellipse 6985" class="cls-1" cx="1.5" cy="1.5" r="1.5" transform="translate(996 2187)"/>
    <circle id="Ellipse_6993" data-name="Ellipse 6993" class="cls-1" cx="1.5" cy="1.5" r="1.5" transform="translate(996 2227)"/>
    <circle id="Ellipse_7011" data-name="Ellipse 7011" class="cls-1" cx="1.5" cy="1.5" r="1.5" transform="translate(996 2268)"/>
    <circle id="Ellipse_7029" data-name="Ellipse 7029" class="cls-1" cx="1.5" cy="1.5" r="1.5" transform="translate(996 2308)"/>
    <circle id="Ellipse_6991" data-name="Ellipse 6991" class="cls-1" cx="1.5" cy="1.5" r="1.5" transform="translate(996 2200)"/>
    <circle id="Ellipse_7000" data-name="Ellipse 7000" class="cls-1" cx="1.5" cy="1.5" r="1.5" transform="translate(996 2240)"/>
    <circle id="Ellipse_7018" data-name="Ellipse 7018" class="cls-1" cx="1.5" cy="1.5" r="1.5" transform="translate(996 2281)"/>
    <circle id="Ellipse_7036" data-name="Ellipse 7036" class="cls-1" cx="1.5" cy="1.5" r="1.5" transform="translate(996 2321)"/>
  </g>
</svg>
