<svg xmlns="http://www.w3.org/2000/svg" viewBox="0 0 500 500"><g id="freepik--background-complete--inject-2"><rect y="382.4" width="500" height="0.25" style="fill:#ebebeb"></rect><rect x="416.78" y="398.49" width="33.12" height="0.25" style="fill:#ebebeb"></rect><rect x="322.53" y="401.21" width="8.69" height="0.25" style="fill:#ebebeb"></rect><rect x="396.59" y="389.21" width="19.19" height="0.25" style="fill:#ebebeb"></rect><rect x="52.46" y="390.89" width="43.19" height="0.25" style="fill:#ebebeb"></rect><rect x="104.56" y="390.89" width="6.33" height="0.25" style="fill:#ebebeb"></rect><rect x="131.47" y="395.11" width="93.68" height="0.25" style="fill:#ebebeb"></rect><path d="M237,337.8H43.91a5.71,5.71,0,0,1-5.7-5.71V60.66A5.71,5.71,0,0,1,43.91,55H237a5.71,5.71,0,0,1,5.71,5.71V332.09A5.71,5.71,0,0,1,237,337.8ZM43.91,55.2a5.46,5.46,0,0,0-5.45,5.46V332.09a5.46,5.46,0,0,0,5.45,5.46H237a5.47,5.47,0,0,0,5.46-5.46V60.66A5.47,5.47,0,0,0,237,55.2Z" style="fill:#ebebeb"></path><path d="M453.31,337.8H260.21a5.72,5.72,0,0,1-5.71-5.71V60.66A5.72,5.72,0,0,1,260.21,55h193.1A5.71,5.71,0,0,1,459,60.66V332.09A5.71,5.71,0,0,1,453.31,337.8ZM260.21,55.2a5.47,5.47,0,0,0-5.46,5.46V332.09a5.47,5.47,0,0,0,5.46,5.46h193.1a5.47,5.47,0,0,0,5.46-5.46V60.66a5.47,5.47,0,0,0-5.46-5.46Z" style="fill:#ebebeb"></path><circle cx="348.08" cy="149.23" r="41.55" style="fill:#f5f5f5"></circle><path d="M422.23,141a6.77,6.77,0,0,0-6.76-6.77,7,7,0,0,0-2,.29,14.3,14.3,0,0,0-16.81-16.16,12.53,12.53,0,0,0-23.23,6.33h-.21a11.55,11.55,0,0,0,0,23.09h42.39A6.76,6.76,0,0,0,422.23,141Z" style="fill:#ebebeb"></path><path d="M331.9,184.29a6.77,6.77,0,0,0-6.77-6.76,6.84,6.84,0,0,0-1.94.28,14.31,14.31,0,0,0-16.82-16.16A12.53,12.53,0,0,0,283.14,168h-.2a11.55,11.55,0,1,0,0,23.09h42.38A6.76,6.76,0,0,0,331.9,184.29Z" style="fill:#ebebeb"></path><path d="M187.61,221.45a6.77,6.77,0,0,0-6.77-6.76,7,7,0,0,0-1.94.28,14.11,14.11,0,0,0,.15-2.07,14.36,14.36,0,0,0-17-14.09,12.52,12.52,0,0,0-23.22,6.33h-.21a11.55,11.55,0,1,0,0,23.09H181A6.76,6.76,0,0,0,187.61,221.45Z" style="fill:#ebebeb"></path><path d="M418.32,223.38a4.09,4.09,0,0,0-4.09-4.09,4.14,4.14,0,0,0-1.17.17,8.67,8.67,0,0,0-8.57-9.92,9.33,9.33,0,0,0-1.6.15,7.57,7.57,0,0,0-14,3.83h-.13a7,7,0,0,0,0,14h25.62A4.08,4.08,0,0,0,418.32,223.38Z" style="fill:#ebebeb"></path><path d="M252.47,100.89a4.09,4.09,0,0,0-4.09-4.09,4.21,4.21,0,0,0-1.18.18,8.61,8.61,0,0,0-8.56-9.92,8.43,8.43,0,0,0-1.6.15A7.57,7.57,0,0,0,223,91h-.12a7,7,0,1,0,0,14h25.61A4.09,4.09,0,0,0,252.47,100.89Z" style="fill:#ebebeb"></path><path d="M108.06,103.14A4.09,4.09,0,0,0,104,99.05a4.16,4.16,0,0,0-1.18.17,8.66,8.66,0,0,0-8.57-9.91,9.22,9.22,0,0,0-1.59.14,7.57,7.57,0,0,0-14,3.83h-.13a7,7,0,0,0,0,14h25.62A4.08,4.08,0,0,0,108.06,103.14Z" style="fill:#ebebeb"></path><path d="M114.58,370.19s-5.24-81.51-32.18-187.67l5.46-4.13s23.63,38.36,47.33,187Z" style="fill:#e6e6e6"></path><path d="M443.89,383.89S370.44,332,250.13,332,52.46,382.36,52.46,382.36Z" style="fill:#ebebeb"></path><path d="M75.46,157.8c-12.67-7.06-29.67,6.86-30.7,26.75a37.23,37.23,0,0,1,5.36-3c.58-5,1.17-9.49,1.17-9.49V181c1-.45,2.17-.91,3.4-1.34l.49-4.86.72,4.45a44.13,44.13,0,0,1,5.13-1.3l1.25-14.14,2.17,13.65a36.64,36.64,0,0,1,5.38-.15l.7-9.61.71,9.7a34.65,34.65,0,0,1,4.61.72l.63-14.31s.53,8,1.11,14.74a37.33,37.33,0,0,1,12.18,6v-1.76S87,164.24,75.46,157.8Z" style="fill:#e0e0e0"></path><path d="M91.72,150.25c8.82-11.5,29.94-5.5,38.8,12.35a37.38,37.38,0,0,0-6.13-.66c-2.53-4.38-4.84-8.24-4.84-8.24l3.56,8.21q-1.71,0-3.66.12l-2.38-4.26,1.11,4.36A44.08,44.08,0,0,0,113,163l-6.77-12.49,3.44,13.39a37,37,0,0,0-5,2l-4.46-8.55,3.2,9.19A33.59,33.59,0,0,0,99.42,169l-6.27-12.88s2.69,7.53,4.84,14a37.16,37.16,0,0,0-8.78,10.37l-.69-1.61S83.66,160.76,91.72,150.25Z" style="fill:#e0e0e0"></path><path d="M102.83,175.23c-10.31-8.7-17,0-17,0A21.11,21.11,0,0,1,96,180.74L97.16,179v2.91c.72.72,1.43,1.48,2.11,2.27l1.84-5.18-.45,6.86c1,1.24,1.9,2.51,2.76,3.79l.61-5,.4,6.6c.91,1.43,1.74,2.84,2.47,4.17l.39-9.21,1,11.8c1.81,3.53,2.79,6,2.79,6S113.14,183.94,102.83,175.23Z" style="fill:#e0e0e0"></path><path d="M78.43,199.31l2.07,1c.18-1.54.4-3.18.67-4.83l-1.54-2.38,1.78.93c.1-.55.2-1.1.31-1.65l-2.09-4.73,2.74,1.75C83.45,184.92,85,181,87.07,179c0,0-21.58,8.65-7.38,31.56,0,0,.13-3.8.66-8.81Z" style="fill:#e0e0e0"></path><path d="M98.74,178.27l3.06-6.91-1,7,1.09.11,4.16-6-.65,6.65a40.47,40.47,0,0,1,4.72,1.36,51.55,51.55,0,0,1,4.94,2.06l1.81-6-.56,6.59c1.58.79,3.12,1.65,4.61,2.54l.74-5.21.32,5.85c1.82,1.13,3.55,2.3,5.15,3.44l-.81-9.29,2.1,10.22c1.64,1.21,3.12,2.37,4.38,3.4l-.29-6.46,2.22,8.07c1.83,1.57,2.88,2.58,2.88,2.58-2.52-22.52-11.92-30.86-26.58-32.23s-24,14.42-24,14.42S91.36,178.06,98.74,178.27Z" style="fill:#e0e0e0"></path><path d="M58.5,208.92l1.81,6.63c.52-1.71,1.23-3.92,2.15-6.39l-1.9-9.76L63.3,207a75.75,75.75,0,0,1,5.14-10.57l-2.55-6.69,3.71,4.83c.6-.93,1.24-1.83,1.9-2.7L70,187.65l2.07,3.46c.46-.57.92-1.12,1.41-1.66l-1.84-5.63,2.62,4.8a25.29,25.29,0,0,1,4.39-3.69l-2.81-6.84,4.07,6.09a16.11,16.11,0,0,1,7.15-2A24.3,24.3,0,0,0,74,173.63c-8.24-1.83-24.51,14-14.66,45.59,0,0,.18-.74.54-2Z" style="fill:#e0e0e0"></path><path d="M67.26,145.51l-1.07,4.18a9.49,9.49,0,0,1,1.52.1L69,144.36l-.71,5.54A11.47,11.47,0,0,1,71.34,151l1.77-7.34-.78,7.91c.38.25.77.52,1.17.82l2.09-6.92L74.18,153A28.55,28.55,0,0,1,79.46,159v-9.92l2.11,13.39a80.81,80.81,0,0,1,5.5,12.72s-1.19-36-10.13-39.4S64.11,150,64.11,150a5.28,5.28,0,0,1,1.17-.27Z" style="fill:#e0e0e0"></path><path d="M82.49,184.55l1.27,6.75,2.12-6.75,3.89,4.88,1-4.88,4.3,3.1S94,179,91.1,175.23,80.69,174.8,82.49,184.55Z" style="fill:#e0e0e0"></path><path d="M143.55,356.32s-8.36-116.48,37.84-233l-5.57-5s-50.57,87-55.14,239.57Z" style="fill:#e6e6e6"></path><path d="M193.88,92.76c14.43-8,33.79,7.81,35,30.47a42.44,42.44,0,0,0-6.11-3.46c-.66-5.73-1.33-10.8-1.33-10.8v10.19c-1.18-.52-2.47-1-3.88-1.53L217,112.1l-.82,5.06a50.46,50.46,0,0,0-5.85-1.47l-1.42-16.12-2.47,15.56a41.31,41.31,0,0,0-6.13-.17l-.8-10.95-.81,11a41.34,41.34,0,0,0-5.25.82l-.72-16.3s-.6,9.1-1.26,16.8a42.66,42.66,0,0,0-13.88,6.86v-2S180.71,100.1,193.88,92.76Z" style="fill:#e0e0e0"></path><path d="M175.36,84.17c-10.05-13.11-34.12-6.27-44.2,14.06a42.9,42.9,0,0,1,7-.75c2.88-5,5.51-9.39,5.51-9.39l-4.05,9.36c1.29,0,2.68,0,4.17.13l2.71-4.85-1.26,5a51,51,0,0,1,5.95,1l7.71-14.22L155,99.7a44.06,44.06,0,0,1,5.7,2.29l5.08-9.74-3.65,10.47a37.84,37.84,0,0,1,4.5,2.84l7.13-14.67s-3.06,8.58-5.51,15.9a42.71,42.71,0,0,1,10,11.82l.79-1.83S184.53,96.14,175.36,84.17Z" style="fill:#e0e0e0"></path><path d="M162.7,112.62c11.74-9.91,19.31,0,19.31,0-4.2.77-8.06,3.14-11.51,6.28l-1.34-2v3.31q-1.24,1.24-2.4,2.58l-2.1-5.89.51,7.81c-1.12,1.41-2.17,2.86-3.14,4.31l-.7-5.75-.46,7.52c-1,1.63-2,3.24-2.81,4.75L157.61,125l-1.13,13.43c-2,4-3.17,6.88-3.17,6.88S151,122.54,162.7,112.62Z" style="fill:#e0e0e0"></path><path d="M190.49,140.05l-2.36,1.15c-.21-1.77-.45-3.63-.76-5.52l1.75-2.7-2,1.05c-.11-.63-.23-1.25-.35-1.88l2.37-5.38-3.11,2c-1.24-5.1-3-9.63-5.36-11.9,0,0,24.58,9.85,8.41,36,0,0-.15-4.33-.75-10Z" style="fill:#e0e0e0"></path><path d="M167.35,116.08l-3.48-7.87,1.09,8c-.4,0-.82.08-1.23.13L159,109.49l.75,7.57a47.06,47.06,0,0,0-5.38,1.55,58.44,58.44,0,0,0-5.64,2.35l-2.06-6.81.65,7.5c-1.8.91-3.56,1.89-5.25,2.9l-.85-5.94-.36,6.67c-2.08,1.29-4.05,2.61-5.87,3.91l.92-10.58-2.39,11.65c-1.87,1.37-3.55,2.69-5,3.87l.33-7.36-2.53,9.2c-2.08,1.78-3.27,2.93-3.27,2.93,2.87-25.65,13.57-35.15,30.27-36.72s27.34,16.43,27.34,16.43S175.76,115.85,167.35,116.08Z" style="fill:#e0e0e0"></path><path d="M213.19,151l-2.06,7.55c-.59-2-1.4-4.47-2.45-7.28l2.16-11.12-3.11,8.67a86.41,86.41,0,0,0-5.86-12.06l2.91-7.61-4.23,5.5c-.69-1.05-1.41-2.09-2.16-3.08l1.69-4.8-2.36,4c-.51-.66-1.05-1.29-1.6-1.9l2.1-6.41-3,5.46a29,29,0,0,0-5-4.2l3.2-7.8-4.64,6.95a18.22,18.22,0,0,0-8.14-2.33s5.54-7.61,14.93-9.69,27.92,15.94,16.7,51.94c0,0-.2-.86-.61-2.32Z" style="fill:#e0e0e0"></path><path d="M203.21,78.76l1.23,4.76a11,11,0,0,0-1.73.12l-1.46-6.18.82,6.3a13.35,13.35,0,0,0-3.5,1.3l-2-8.36.88,9a16.22,16.22,0,0,0-1.33.93l-2.38-7.89,1.61,8.5a32.11,32.11,0,0,0-6,6.92V82.87l-2.41,15.26a92.32,92.32,0,0,0-6.26,14.49s1.36-41,11.54-44.88S206.8,83.92,206.8,83.92a6,6,0,0,0-1.33-.32Z" style="fill:#e0e0e0"></path><path d="M185.86,123.23l-1.44,7.69L182,123.23l-4.44,5.56-1.17-5.56-4.89,3.54s1.28-9.84,4.55-14.15S187.92,112.13,185.86,123.23Z" style="fill:#e0e0e0"></path></g><g id="freepik--Shadow--inject-2"><ellipse id="freepik--path--inject-2" cx="250" cy="416.24" rx="193.89" ry="11.32" style="fill:#f5f5f5"></ellipse></g><g id="freepik--Sand--inject-2"><rect x="315.83" y="307.89" width="125.02" height="5.44" transform="translate(2.21 623.9) rotate(-79.18)" style="fill:#263238"></rect><path d="M363.13,390.2h0a11.67,11.67,0,0,1-9.28-13.65l2.2-11.46L379,369.47l-2.19,11.46A11.67,11.67,0,0,1,363.13,390.2Z" style="fill:#263238"></path><path d="M403.64,241a3.78,3.78,0,0,0-3-4.42l-15.71-3a3.77,3.77,0,0,0-4.42,3,11.77,11.77,0,0,0,6.74,12.94l-1.35,7.05,5.35,1,1.34-7A11.77,11.77,0,0,0,403.64,241Zm-13,5.42a7.78,7.78,0,0,1-6.21-8.87l15.27,2.92A7.79,7.79,0,0,1,390.61,246.41Z" style="fill:#263238"></path><path d="M322.53,410.78h90.54s-15.43-8.34-18.2-8.52-4.35-1.41-6.33-3.77-2.77-5.06-6.33-8.85.39-5.29-7.12-6.27-4.62-.35-9.23-3.68-3.69-3.33-9.1-5.7-2.24-3.28-8.57-3.82c-4.37-.37-11.29,1.94-14.87,4.49-1.6,1.14-2.41,3-4,4-1.76,1.12-4.52-1-4.23,2.8a9.48,9.48,0,0,1,.13,2.95c-.51,2.14-9.32,2.14-11.55,2.81a2.12,2.12,0,0,0-1.35.81c-.51.91.26,2.52-.73,2.86-.31.1-.65,0-1,0-1.2.22-.88,2.36-2,2.85s-2.41-.5-3.65,0c-1,.36-1.28,1.65-2.11,2.15-1.44.89-2.95,1.54-4.38,2.47-2.48,1.63-4.63,3.62-7.29,5.05l-7.12,1.95-5,1.76Z" style="fill:#263238"></path><path d="M322.53,410.78h90.54s-15.43-8.34-18.2-8.52-4.35-1.41-6.33-3.77-2.77-5.06-6.33-8.85.39-5.29-7.12-6.27-4.62-.35-9.23-3.68-3.69-3.33-9.1-5.7-2.24-3.28-8.57-3.82c-4.37-.37-11.29,1.94-14.87,4.49-1.6,1.14-2.41,3-4,4-1.76,1.12-4.52-1-4.23,2.8a9.48,9.48,0,0,1,.13,2.95c-.51,2.14-9.32,2.14-11.55,2.81a2.12,2.12,0,0,0-1.35.81c-.51.91.26,2.52-.73,2.86-.31.1-.65,0-1,0-1.2.22-.88,2.36-2,2.85s-2.41-.5-3.65,0c-1,.36-1.28,1.65-2.11,2.15-1.44.89-2.95,1.54-4.38,2.47-2.48,1.63-4.63,3.62-7.29,5.05l-7.12,1.95-5,1.76Z" style="fill:#fff;opacity:0.4;isolation:isolate"></path><path d="M417.07,406.44l-43.13,5.66s-5.14-4.35-8.17-.79,1.05,4.93,1.05,4.93-1.31,2.33,3.43,2.72,6.07-1.46,6.07-1.46l40.75-5.8s3.82,2.24,7.51.4,1.45-5.81-.66-5.94a2.63,2.63,0,0,0-2.9-2.86C417.86,403.26,416.93,405,417.07,406.44Z" style="fill:#263238"></path><path d="M366.82,416.24s-1.32,2.33,3.43,2.72,6.07-1.46,6.07-1.46l40.75-5.8s3.82,2.25,7.52.4,1.44-5.8-.67-5.94a2.63,2.63,0,0,0-2.9-2.86c-3.17,0-4.08,1.7-3.95,3.14l-43.13,5.66s-5.13-4.35-8.18-.79a4.85,4.85,0,0,0-.94,1.55C363.94,415.28,366.82,416.24,366.82,416.24Z" style="fill:#fff;opacity:0.6000000000000001;isolation:isolate"></path><path d="M366.82,416.24s-1.32,2.33,3.43,2.72,6.07-1.46,6.07-1.46l40.75-5.8s3.82,2.25,7.52.4,1.44-5.8-.67-5.94c0,0,2.83,1.13.86,3.37s-6.32.92-6.32.92L376,416.24s.33,1.66-3.32,1.73-5.38-2.18-4.45-3.37c0,0-2.71.51-3.39-1.74C363.94,415.28,366.82,416.24,366.82,416.24Z" style="opacity:0.2;isolation:isolate"></path><path d="M361.77,406.44l43.12,5.66s5.14-4.35,8.18-.79-1.06,4.93-1.06,4.93,1.32,2.33-3.43,2.72-6.06-1.46-6.06-1.46l-40.75-5.8s-3.82,2.25-7.52.4-1.45-5.8.66-5.94a2.63,2.63,0,0,1,2.9-2.86C361,403.26,361.9,405,361.77,406.44Z" style="fill:#263238"></path><path d="M412,416.24s1.32,2.33-3.43,2.72-6.06-1.46-6.06-1.46l-40.75-5.8s-3.82,2.25-7.52.4-1.45-5.8.66-5.94a2.63,2.63,0,0,1,2.9-2.86c3.17,0,4.09,1.7,4,3.14l43.12,5.66s5.14-4.35,8.18-.79a4.9,4.9,0,0,1,.95,1.55C414.89,415.28,412,416.24,412,416.24Z" style="fill:#fff;opacity:0.6000000000000001;isolation:isolate"></path><path d="M412,416.24s1.32,2.33-3.43,2.72-6.06-1.46-6.06-1.46l-40.75-5.8s-3.82,2.25-7.52.4-1.45-5.8.66-5.94c0,0-2.83,1.13-.86,3.37s6.33.92,6.33.92l42.47,5.79s-.32,1.66,3.33,1.73,5.37-2.18,4.45-3.37c0,0,2.7.51,3.39-1.74C414.89,415.28,412,416.24,412,416.24Z" style="opacity:0.2;isolation:isolate"></path><path d="M396.45,400.2c-.81-9.44-17.61-11.06-21.79-9.15s-4.71,9.52-4.71,9.52a6.18,6.18,0,0,0-3.18,3.59c-.88,2.62,1.9,3.66,1.9,3.66l-1.28,3.83a6.38,6.38,0,0,0,1.14,1.26c.13-.84.5-3,1-2.79s-.37,2-.63,3.09a13.6,13.6,0,0,0,1.93,1.24c.53-1.07,1.27-2.83,1.54-2.69s-.69,1.87-1.09,2.92a26,26,0,0,0,2.42,1.05c.41-1,1-2.77,1.23-2.7s-.4,1.84-.62,2.92c.92.33,1.83.6,2.65.83.39-.95.87-2.43,1.05-2.37s-.5,1.57-.73,2.46c1.2.32,2.19.53,2.72.63.46-.88.65-3.51,2.06-2.92,3.26.88,4.76-2.37,4.76-2.37S397.26,409.65,396.45,400.2Z" style="fill:#263238"></path><path d="M386.81,412.21s-1.51,3.25-4.76,2.37c-1.41-.59-1.6,2-2.06,2.92l-.6-.12c-.55-.13-1.27-.29-2.12-.51.23-.9.92-2.4.73-2.46s-.66,1.43-1.05,2.37c-.82-.23-1.73-.5-2.65-.83.22-1.08.84-2.84.63-2.91s-.83,1.7-1.24,2.69a24.88,24.88,0,0,1-2.42-1.05c.4-1,1.36-2.78,1.09-2.92s-1,1.62-1.54,2.69a14.19,14.19,0,0,1-1.93-1.24c.26-1.09,1.12-2.93.63-3.1s-.86,2-1,2.79a6.58,6.58,0,0,1-1.14-1.24l1.29-3.84s-2.36-.87-2.05-3.06a2.73,2.73,0,0,1,.14-.6,6.22,6.22,0,0,1,3.18-3.59s.53-7.61,4.71-9.52,21-.29,21.79,9.15a11.19,11.19,0,0,1-.05,2.47h0C395.4,410.1,386.81,412.21,386.81,412.21Z" style="fill:#fff;opacity:0.7000000000000001;isolation:isolate"></path><path d="M371.3,406.51s1.57-2.82,3-2.61,1.61,4.24.89,4.52-2-1.72-2-1.72S371.3,408.07,371.3,406.51Z" style="opacity:0.30000000000000004;isolation:isolate"></path><path d="M377.39,402.11c1-1,2.59-2,4.46.19s-.75,5-2.23,4.79S376.14,403.38,377.39,402.11Z" style="opacity:0.30000000000000004;isolation:isolate"></path><path d="M371.9,398.6c1.26-.78,3,.57,2.65,2.42s-4.14,3.17-4,1.56S370.66,399.36,371.9,398.6Z" style="opacity:0.30000000000000004;isolation:isolate"></path><path d="M386.81,412.21s-1.51,3.25-4.76,2.37c-1.41-.59-1.6,2-2.06,2.92l-.6-.12c.34-1.88.6-4.42.6-4.42s2.55,1.72,5,.53,2.2-4.22,2.2-4.22c5,.54,7.8-3.43,9.17-6.6C395.4,410.1,386.81,412.21,386.81,412.21Z" style="opacity:0.1;isolation:isolate"></path><path d="M368.58,408.11l.1-.29s-2.36-.87-2.05-3.06c.52.77,1.2,1.53,1.82,1.53h1.26S369.19,407.05,368.58,408.11Z" style="opacity:0.1;isolation:isolate"></path><path d="M226.37,410.78H80.1S80,397,85.77,394,91,387.13,91,384.89s2.89-3.32,4.61-5.2l3.83-4.19,2.64-3s-1.46,3.22,2.44-2.33,12.33-12.33,12.33-12.33,4.75-3.24,7.91-5.87a79,79,0,0,0,7.57-7.92v-4.43l5.09-5.71,3-1,6-9.44s3.69-5.34,4.75-5.56,2-3.68,2-3.68l7.44-2.11a48.22,48.22,0,0,1,4.75,2.11c2.63,1.34,9.49.74,10,3.68s13,8.74,13,8.74,1.23,3.21,2.29,5.3,4.22,5.85,5.8,5.85,9.1,5.73,9.1,5.73l5.41,9s4.52,3.83,6.08,5.35,4.65,2.63,5.91,7.86S234.18,377,234.18,377a11.6,11.6,0,0,0,3.29,4.74c2.32,1.88,9.53,6.85,9.53,6.85l4.94,7,2.56,5,5.55,6.31,4.37,1.77,2.27,2.11Z" style="fill:#263238"></path><path d="M226.37,410.78H80.1S80,397,85.77,394,91,387.13,91,384.89s2.89-3.32,4.61-5.2l3.83-4.19,2.64-3s-1.46,3.22,2.44-2.33,12.33-12.33,12.33-12.33,4.75-3.24,7.91-5.87a79,79,0,0,0,7.57-7.92v-4.43l5.09-5.71,3-1,6-9.44s3.69-5.34,4.75-5.56,2-3.68,2-3.68l7.44-2.11a48.22,48.22,0,0,1,4.75,2.11c2.63,1.34,9.49.74,10,3.68s13,8.74,13,8.74,1.23,3.21,2.29,5.3,4.22,5.85,5.8,5.85,9.1,5.73,9.1,5.73l5.41,9s4.52,3.83,6.08,5.35,4.65,2.63,5.91,7.86S234.18,377,234.18,377a11.6,11.6,0,0,0,3.29,4.74c2.32,1.88,9.53,6.85,9.53,6.85l4.94,7,2.56,5,5.55,6.31,4.37,1.77,2.27,2.11Z" style="fill:#fff;opacity:0.4;isolation:isolate"></path><path d="M125.33,405.72l-43.12,5.67s-5.14-4.36-8.17-.8,1,4.93,1,4.93-1.32,2.34,3.43,2.73,6.07-1.46,6.07-1.46l40.74-5.8s3.83,2.24,7.52.4,1.45-5.81-.66-5.94a2.63,2.63,0,0,0-2.9-2.86C126.13,402.55,125.2,404.28,125.33,405.72Z" style="fill:#263238"></path><path d="M75.09,415.53s-1.32,2.33,3.43,2.72,6.06-1.46,6.06-1.46l40.75-5.8s3.82,2.25,7.52.4,1.45-5.8-.66-5.94a2.63,2.63,0,0,0-2.9-2.86c-3.17,0-4.09,1.7-4,3.14l-43.12,5.66S77.07,407,74,410.6a4.9,4.9,0,0,0-1,1.55C72.21,414.57,75.09,415.53,75.09,415.53Z" style="fill:#fff;opacity:0.6000000000000001;isolation:isolate"></path><path d="M75.09,415.53s-1.32,2.33,3.43,2.72,6.06-1.46,6.06-1.46l40.75-5.8s3.82,2.25,7.52.4,1.45-5.8-.66-5.94c0,0,2.83,1.13.86,3.37s-6.33.92-6.33.92l-42.47,5.79s.32,1.66-3.33,1.73-5.37-2.18-4.45-3.37c0,0-2.7.51-3.39-1.74C72.21,414.57,75.09,415.53,75.09,415.53Z" style="opacity:0.2;isolation:isolate"></path><path d="M75.34,404.37c-2.51-9.15,12.69-16.48,17.28-16.14s7.71,7.3,7.71,7.3a6.25,6.25,0,0,1,4.23,2.27c1.73,2.16-.52,4.09-.52,4.09l2.52,3.16a6.07,6.07,0,0,1-.63,1.57c-.41-.75-1.49-2.6-1.9-2.27s1,1.75,1.66,2.68a14.06,14.06,0,0,1-1.37,1.83c-.87-.82-2.18-2.21-2.38-2s1.3,1.52,2,2.36a23.33,23.33,0,0,1-1.9,1.82c-.73-.78-1.91-2.25-2.09-2.1s1,1.59,1.59,2.52c-.75.63-1.51,1.2-2.2,1.7-.7-.75-1.66-2-1.81-1.86s1,1.29,1.54,2.05c-1,.72-1.87,1.25-2.33,1.54-.74-.67-1.83-3.07-3-2-2.75,1.95-5.28-.58-5.28-.58S77.85,413.51,75.34,404.37Z" style="fill:#263238"></path><path d="M88.54,412.29s2.54,2.53,5.28.58c1.12-1.05,2.21,1.36,3,2,.13-.09.32-.19.52-.33.47-.3,1.09-.71,1.81-1.21-.52-.76-1.69-1.93-1.53-2.05s1.11,1.11,1.8,1.86c.69-.5,1.45-1.07,2.2-1.7-.58-.93-1.77-2.37-1.6-2.52s1.37,1.32,2.1,2.11c.66-.59,1.3-1.19,1.91-1.83-.74-.84-2.24-2.14-2-2.36s1.51,1.17,2.38,2A15.13,15.13,0,0,0,105.7,407c-.62-.94-2.07-2.37-1.67-2.69s1.49,1.54,1.9,2.28a6.3,6.3,0,0,0,.63-1.56L104,401.9s1.91-1.64.86-3.58a2.57,2.57,0,0,0-.34-.52,6.22,6.22,0,0,0-4.22-2.27s-3.13-6.95-7.71-7.3-19.79,7-17.28,16.14a10.51,10.51,0,0,0,.9,2.29h0C79.75,413.29,88.54,412.29,88.54,412.29Z" style="fill:#fff;opacity:0.7000000000000001;isolation:isolate"></path><path d="M101.12,401.57s-2.45-2.1-3.68-1.42,0,4.53.73,4.55,1.31-2.32,1.31-2.32S101.66,403,101.12,401.57Z" style="opacity:0.30000000000000004;isolation:isolate"></path><path d="M93.88,399.56c-1.32-.61-3.13-1-4.12,1.71s2.45,4.48,3.75,3.73S95.49,400.31,93.88,399.56Z" style="opacity:0.30000000000000004;isolation:isolate"></path><path d="M97.81,394.36c-1.45-.29-2.63,1.58-1.64,3.19s5,1.54,4.27.09S99.24,394.65,97.81,394.36Z" style="opacity:0.30000000000000004;isolation:isolate"></path><path d="M88.54,412.29s2.54,2.53,5.28.58c1.12-1.05,2.21,1.36,3,2,.13-.09.32-.19.52-.33-1-1.64-2.1-3.94-2.1-3.94s-1.79,2.5-4.53,2.24-3.53-3.19-3.53-3.19c-4.55,2.25-8.5-.52-10.88-3C79.75,413.29,88.54,412.29,88.54,412.29Z" style="opacity:0.1;isolation:isolate"></path><path d="M104.22,402.14l-.19-.24s1.91-1.64.86-3.58c-.22.9-.59,1.85-1.18,2.06l-1.17.43S103.29,401.35,104.22,402.14Z" style="opacity:0.1;isolation:isolate"></path><path d="M72.84,409.15,116,414.81s5.14-4.35,8.17-.79-1,4.93-1,4.93,1.32,2.33-3.43,2.72-6.07-1.46-6.07-1.46l-40.74-5.8s-3.83,2.24-7.52.4-1.45-5.81.66-5.94a2.63,2.63,0,0,1,2.9-2.86C72.05,406,73,407.7,72.84,409.15Z" style="fill:#263238"></path><path d="M123.08,419s1.32,2.33-3.43,2.72-6.06-1.46-6.06-1.46l-40.75-5.8s-3.82,2.25-7.52.4-1.45-5.8.66-5.94a2.63,2.63,0,0,1,2.9-2.86c3.17,0,4.09,1.7,4,3.14L116,414.81s5.14-4.35,8.18-.79a4.9,4.9,0,0,1,1,1.55C126,418,123.08,419,123.08,419Z" style="fill:#fff;opacity:0.6000000000000001;isolation:isolate"></path><path d="M123.08,419s1.32,2.33-3.43,2.72-6.06-1.46-6.06-1.46l-40.75-5.8s-3.82,2.25-7.52.4-1.45-5.8.66-5.94c0,0-2.83,1.13-.86,3.37s6.33.92,6.33.92L113.92,419s-.32,1.66,3.33,1.73,5.37-2.18,4.45-3.37c0,0,2.7.51,3.39-1.74C126,418,123.08,419,123.08,419Z" style="opacity:0.2;isolation:isolate"></path></g><g id="freepik--Character--inject-2"><g id="freepik--group--inject-2"><path d="M188.63,400c4.22,0,11.61-18.46,17-19.26s7.25,1.59,10.94,3.7,13.45-1.11,19-3.85,12.33-6.72,17.51-2.89,7.55,6.47,9.39,7.26,3.43.8,6.33.8,5-1.59,7.8,0,4.86,3.53,7.5,3.48,9.31-1.46,9.67.43,2.46,3.21,4,4,12.83.36,15.12,2.95,12.15,5.93,13.94,9,9.71,8.25,9.71,8.25-109.55,2.32-130.34,2.4S188.63,400,188.63,400Z" style="fill:#263238"></path><path d="M188.63,400c4.22,0,11.61-18.46,17-19.26s7.25,1.59,10.94,3.7,13.45-1.11,19-3.85,12.33-6.72,17.51-2.89,7.55,6.47,9.39,7.26,3.43.8,6.33.8,5-1.59,7.8,0,4.86,3.53,7.5,3.48,9.31-1.46,9.67.43,2.46,3.21,4,4,12.83.36,15.12,2.95,12.15,5.93,13.94,9,9.71,8.25,9.71,8.25-109.55,2.32-130.34,2.4S188.63,400,188.63,400Z" style="opacity:0.30000000000000004;isolation:isolate"></path><path d="M264.42,332.91s14,4.75,29.35,22.54l-2.62,9.25S276.33,344,267.72,339Z" style="fill:#263238"></path><path d="M264.42,332.91s14,4.75,29.35,22.54l-2.62,9.25S276.33,344,267.72,339Z" style="opacity:0.30000000000000004;isolation:isolate"></path><path d="M269.09,337.48s10.06,10.88,15,33.83l-6.73,6.88s-3.11-25.28-8.28-33.78Z" style="fill:#263238"></path><path d="M269.09,337.48s10.06,10.88,15,33.83l-6.73,6.88s-3.11-25.28-8.28-33.78Z" style="opacity:0.2;isolation:isolate"></path><path d="M278,203.9l-3.56-11.21s-2.46-.91-2.85-3.11S280.14,176,280.14,176s4.88,4.59,5.67,6.17-4.74,9.63-4.74,9.63l2.5,7.47Z" style="fill:#b97964"></path><path d="M266.69,261s14-16.39,16.62-23.24-7.83-40.51-7.83-40.51l7-3.52L287,204.56s2.9-.26,5.8,3.43,14.24,22.87,13.72,37-22.42,39.48-36.93,43.69Z" style="fill:#263238"></path><path d="M306.52,245c-.33,8.71-8.76,21.68-18.59,31.34-6.12,6-12.78,10.74-18.34,12.35l-.79-7.55L266.69,261s14-16.39,16.62-23.24-7.83-40.51-7.83-40.51l7-3.52,2.29,5.53,2.19,5.28s2.9-.26,5.8,3.43S307,230.86,306.52,245Z" style="fill:#fff;opacity:0.4;isolation:isolate"></path><path d="M287.93,276.35c-6.12,6-12.78,10.74-18.34,12.35l-.79-7.55A38,38,0,0,0,287.93,276.35Z" style="opacity:0.2;isolation:isolate"></path><polygon points="287 204.56 281.33 206.45 284.81 199.28 287 204.56" style="opacity:0.2;isolation:isolate"></polygon><path d="M216.24,212.52l4.55-10.85s2.54-.69,3.12-2.84-7.26-14.32-7.26-14.32-5.28,4.13-6.21,5.64,3.87,10,3.87,10l-3.17,7.22Z" style="fill:#b97964"></path><path d="M249.62,413.84c.8-8.43,1.6-17.79,2.32-26.87,2.6,7,4.61,16.35,6.18,26.87H284.3c-3.23-36.28-11.79-59.49-14.14-72.33L227.28,345c-.06,5.4-5.51,41.6-7.34,68.82Z" style="fill:#263238"></path><path d="M251.94,387a115,115,0,0,1,4.81,18.61c1.2-16.46-3.61-33.93-3.61-33.93Z" style="opacity:0.2;isolation:isolate"></path><path d="M263.46,149.88l-43.09,6.63a13.23,13.23,0,0,0-11.06,15.1l4.15,27,26.17-4,16.92-2.6,26.16-4-4.16-27A13.22,13.22,0,0,0,263.46,149.88Z" style="fill:#263238"></path><path d="M239.63,194.57l-26.17,4-4.15-27a13.23,13.23,0,0,1,11.06-15.1h0a13.24,13.24,0,0,1,15.1,11.07Z" style="opacity:0.2;isolation:isolate"></path><path d="M215.05,196.44l-3.87-25.12a11.34,11.34,0,0,1,22.42-3.45L237.47,193Z" style="opacity:0.2;isolation:isolate"></path><rect x="239.4" y="168.28" width="39.81" height="21.01" transform="translate(-24.2 41.56) rotate(-8.76)" style="opacity:0.2;isolation:isolate"></rect><path d="M276.68,161.23l.47,3-39.34,6.06-.46-3a13.25,13.25,0,0,0-15.1-11.07l39.33-6.06A13.24,13.24,0,0,1,276.68,161.23Z" style="opacity:0.2;isolation:isolate"></path><rect x="208" y="167.47" width="72.35" height="3" rx="0.74" transform="translate(-22.88 39.14) rotate(-8.76)" style="fill:#263238"></rect><path d="M279.81,162.68l.24,1.57a.7.7,0,0,1-.59.8l-70.11,10.8a.69.69,0,0,1-.8-.59l-.25-1.57a.71.71,0,0,1,.59-.81L279,162.08A.71.71,0,0,1,279.81,162.68Z" style="fill:#fff;opacity:0.2;isolation:isolate"></path><path d="M236.73,169.31l.24,1.57a.69.69,0,0,1-.59.8l-27,4.17a.69.69,0,0,1-.8-.59l-.25-1.57a.71.71,0,0,1,.59-.81l27-4.16A.71.71,0,0,1,236.73,169.31Z" style="opacity:0.2;isolation:isolate"></path><path d="M261.07,176.55l-.3.06a3.11,3.11,0,0,1-.95-6.13l.31,0a3.14,3.14,0,0,0,.94,6.1Z" style="fill:#fff;opacity:0.2;isolation:isolate"></path><path d="M263.74,173a2.88,2.88,0,1,1-3.31-2.63A3,3,0,0,1,263.74,173Z" style="fill:#fff;opacity:0.4;isolation:isolate"></path><path d="M261.48,172.48a.72.72,0,1,0-1.42.22.71.71,0,0,0,.59.59l.12,1.79.81-.12-.43-1.77A.7.7,0,0,0,261.48,172.48Z" style="opacity:0.2;isolation:isolate"></path><path d="M216.58,264.3s4,47.56,11.5,73.18l40.72-2.37s4.84-47.05-2.11-74.09C266.58,260.58,252.76,283.31,216.58,264.3Z" style="fill:#263238"></path><path d="M216.58,264.3s4,47.56,11.5,73.18l40.72-2.37s4.84-47.05-2.11-74.09C266.58,260.58,252.76,283.31,216.58,264.3Z" style="fill:#fff;opacity:0.4;isolation:isolate"></path><path d="M226.14,269.44s1.94,13.87-5.55,25.71c0,0-36.25-27.22-34.4-50.4,1.44-18,18-32.64,21.56-32.66l5.93-11.68,6.91,4.55s-12.05,31.79-11.66,36.26S226.14,269.44,226.14,269.44Z" style="fill:#263238"></path><path d="M225,284.77h0a36.16,36.16,0,0,1-4.4,10.38,144.43,144.43,0,0,1-15-13.39c-9.75-10-20.48-24.13-19.45-37,1.44-18,18-32.64,21.56-32.66l3.08-6.06,2.85-5.62,6.91,4.55s-12.05,31.79-11.66,36.26,17.21,28.22,17.21,28.22A44.06,44.06,0,0,1,225,284.77Z" style="fill:#fff;opacity:0.4;isolation:isolate"></path><path d="M225,284.77a36.16,36.16,0,0,1-4.4,10.38,144.43,144.43,0,0,1-15-13.39A45.8,45.8,0,0,0,225,284.77Z" style="opacity:0.2;isolation:isolate"></path><path d="M213.68,214.56l-5.93-2.47,3.08-6.06A18.51,18.51,0,0,1,213.68,214.56Z" style="opacity:0.2;isolation:isolate"></path><path d="M234.18,271.53c3.95,3.59,16.21,16.92,16.21,16.92s3.46-16.31,2.19-18.2c-3.55-.59-5.28-2.25-6-4.37a10.48,10.48,0,0,1-.36-4.07,22.42,22.42,0,0,1,.3-2.27l-12-8.86C236.13,256.53,238.05,267.29,234.18,271.53Z" style="fill:#b97964"></path><path d="M236,256.32c.48,7.17,7.68,9.15,10.57,9.56a10.48,10.48,0,0,1-.36-4.07Z" style="opacity:0.2;isolation:isolate"></path><path d="M232.78,255.89c-.8-2.73-5.66-5.07-5.66-5.07s-.05.1-.13.29a8.48,8.48,0,0,0-3.85,4.88c-.9,2.87,1,7.7,1,7.7a9.34,9.34,0,0,0,4.14-4.23,20.94,20.94,0,0,0,3.93,3.34A9.39,9.39,0,0,0,232.78,255.89Z" style="fill:#263238"></path><path d="M232.78,255.89c-.8-2.73-5.66-5.07-5.66-5.07s-.05.1-.13.29a8.48,8.48,0,0,0-3.85,4.88c-.9,2.87,1,7.7,1,7.7a9.34,9.34,0,0,0,4.14-4.23,20.94,20.94,0,0,0,3.93,3.34A9.39,9.39,0,0,0,232.78,255.89Z" style="opacity:0.2;isolation:isolate"></path><path d="M240.63,229s9.36,5.15,7.84,13.28c-1.34,7.2-15.64-7.92-15.64-7.92Z" style="fill:#263238"></path><path d="M242.07,260.52a10.13,10.13,0,0,0,11.16-5.15,11.26,11.26,0,0,0,1.07-8.24c-.09-.38-.21-.76-.34-1.15-2.57-7-10.11-16.28-18.43-14.57A11,11,0,0,0,229,249C233.87,255.38,236.41,259.37,242.07,260.52Z" style="fill:#b97964"></path><path d="M240.41,244.07c.32.56.94.79,1.3.55s.34-.87,0-1.42-.95-.79-1.3-.55S240.05,243.52,240.41,244.07Z" style="fill:#263238"></path><path d="M246.56,240c.32.57.95.79,1.3.56s.34-.88,0-1.42-.95-.79-1.31-.55S246.22,239.45,246.56,240Z" style="fill:#263238"></path><path d="M244.78,241.54a23.13,23.13,0,0,0,5.71,2.91,3.81,3.81,0,0,1-2.29,2.24Z" style="fill:#a24e3f"></path><path d="M237.17,243.35a.4.4,0,0,0,.23-.33,3.1,3.1,0,0,1,1.33-2.44.38.38,0,0,0,.14-.52.38.38,0,0,0-.52-.14h0a3.85,3.85,0,0,0-1.72,3.05.39.39,0,0,0,.35.41h0A.57.57,0,0,0,237.17,243.35Z" style="fill:#263238"></path><path d="M247.79,236.08A.37.37,0,0,0,248,236a.39.39,0,0,0-.13-.53h0a3.81,3.81,0,0,0-3.5-.26.37.37,0,0,0-.17.51h0a.38.38,0,0,0,.51.17h0a3.12,3.12,0,0,1,2.77.25A.38.38,0,0,0,247.79,236.08Z" style="fill:#263238"></path><path d="M228.36,237.36l2.45,2.59a2.64,2.64,0,0,0,.91,3.46c2.69,1.72,4.08,6.44,3.33,9.28,0,0-.82-1-1.52-.11s2.66,2.83,3.37,5.6c0,0-2.19.51-6.17-3.18-4.93-4.58-8.62-8.5-9-11.32Z" style="fill:#263238"></path><path d="M229.76,256.39a7.61,7.61,0,0,0,5.79.78c2.59-.7,2.51-3.34.65-5.07-1.66-1.53-5-3.07-7.08-1.41S227.63,255.12,229.76,256.39Z" style="fill:#b97964"></path><path d="M245.1,232.26s-19.39,3.79-17.91,19.59c0,0-11.15-7.62-3.6-19.27C227.86,226,240,225.16,245.1,232.26Z" style="fill:#263238"></path><path d="M235.12,249.45s1.95,1.93,3.51,2.06,4-3.91,9.21-3.18c0,0,.91-2.18,2.61-2s2.73-1.48,2.07-3.48c0,0,3.07.31,2.5,1.68-.49,1.18.65,2.1,1.3,3a2.63,2.63,0,0,1,.69,1.64c0,.89-.53,1.69-.05,2.56s1.6,1.54,1.66,2.7-1,2.06-1.74,2.92a5.4,5.4,0,0,0-1.48,4.21c.35,2.06-2.38,2.75-3.85,2.05-1.05-.49-1.91-.93-3.06-.46a7.76,7.76,0,0,1-1.55.56,2.26,2.26,0,0,1-2.22-.94c-.46-.63-.6-1.15-1.52-1.13-1.78,0-1.49,1.45-3.38.1s-.51-3.05-1.21-4.4-.79-.6-2.5-2S235.12,249.45,235.12,249.45Z" style="fill:#263238"></path><path d="M235.12,249.45s1.95,1.93,3.51,2.06,4-3.91,9.21-3.18c0,0,.91-2.18,2.61-2s2.73-1.48,2.07-3.48c0,0,3.07.31,2.5,1.68-.49,1.18.65,2.1,1.3,3a2.63,2.63,0,0,1,.69,1.64c0,.89-.53,1.69-.05,2.56s1.6,1.54,1.66,2.7-1,2.06-1.74,2.92a5.4,5.4,0,0,0-1.48,4.21c.35,2.06-2.38,2.75-3.85,2.05-1.05-.49-1.91-.93-3.06-.46a7.76,7.76,0,0,1-1.55.56,2.26,2.26,0,0,1-2.22-.94c-.46-.63-.6-1.15-1.52-1.13-1.78,0-1.49,1.45-3.38.1s-.51-3.05-1.21-4.4-.79-.6-2.5-2S235.12,249.45,235.12,249.45Z" style="fill:#fff;opacity:0.1;isolation:isolate"></path><path d="M249.49,249a21.33,21.33,0,0,0,.66,3.05c-.16.08-.33.17-.5.24-2.26,1-3.65.79-4.52.19a3.28,3.28,0,0,1-1-1.17,3.24,3.24,0,0,1-.3-.82,11.83,11.83,0,0,0,4.87-1.14C249.2,249.16,249.49,249,249.49,249Z" style="fill:#263238"></path><path d="M248.72,249.36l.17.9c-2.13,1-3.77,1.4-4.74,1.06a3.24,3.24,0,0,1-.3-.82A11.83,11.83,0,0,0,248.72,249.36Z" style="fill:#fff"></path><path d="M249.65,252.3c-2.26,1-3.65.79-4.52.19a8,8,0,0,1,2.75-.67A3,3,0,0,1,249.65,252.3Z" style="fill:#de5753"></path><path d="M253.64,268.91s2.41,15-1.1,27.3c0,0-14.76-14.07-20.39-25.76l-8.23-4.85s3.05,25.86-3.33,39.84l2.34,22.36,12,4.15s15.73-7.13,19.53-15.7a141.91,141.91,0,0,0,12.25,11.55l6.73-5.61-1.85-25.45S263,274.46,263,264.83Z" style="fill:#263238"></path><path d="M228.08,337.48l41-3.57,1.59,7.19L223,365.7A234.47,234.47,0,0,0,228.08,337.48Z" style="fill:#263238"></path><circle cx="253.02" cy="301.64" r="1.43" style="opacity:0.30000000000000004;isolation:isolate"></circle><circle cx="254.5" cy="310.69" r="1.43" style="opacity:0.30000000000000004;isolation:isolate"></circle><path d="M131.47,419H365.86s-5.74-12.57-16.35-12.68-11.26-10.11-18.29-12.43-15.47.63-19.69,3.64-4.47,3.71-9.89,2-13.44-1.5-17.34,0-7.85,5.39-10.88,6.34-10.07,2.33-13.37,1-5.24-1.79-8.53.65-5.69,6.46-12.4,5.5-22-12.89-28.07-12.46-6.6-7.27-11.35-9-24.79-3.47-27.43,0c-3,3.9-7.94,13.83-13.34,13.65-2-.07-4.12-.52-5.79.54-1.2.77-1.94,2.23-3.31,2.62a8,8,0,0,1-3-.15c-1-.09-2.2.21-2.51,1.16-1.6,4.92-.75,4.05-5.45,5.85C137.28,415.93,132.92,419,131.47,419Z" style="fill:#263238"></path><path d="M198.25,176.46s-6.85-28.24,22.68-35.1c0,0-10.49-2.11-13.58-22.15,0,0,3.56,20.64-2.77,21.89-5.26,1-21.81-17.69-21.81-17.69s17.77,21.66,14.56,27.58c-2,3.74-31.25,1.43-31.25,1.43s27,5.07,27.43,9.91-15.76,9.55-15.76,9.55,14.31-3.57,15.76-.8-6.33,7.7-6.33,7.7S195.09,173.05,198.25,176.46Z" style="fill:#263238"></path><path d="M290.18,164.61s.11-29.06-30.21-28.87c0,0,9.72-4.49,8.07-24.7,0,0,1.32,20.9,7.77,20.65,5.36-.22,17.11-22.27,17.11-22.27s-12.25,25.19-7.76,30.2c2.84,3.17,30.73-5.86,30.73-5.86s-25.12,11.2-24.38,16,17.55,5.63,17.55,5.63-14.75-.15-15.51,2.88,7.94,6,7.94,6S292.46,160.56,290.18,164.61Z" style="fill:#263238"></path><path d="M198.25,176.46s-6.85-28.24,22.68-35.1c0,0-10.49-2.11-13.58-22.15,0,0,3.56,20.64-2.77,21.89-5.26,1-21.81-17.69-21.81-17.69s17.77,21.66,14.56,27.58c-2,3.74-31.25,1.43-31.25,1.43s27,5.07,27.43,9.91-15.76,9.55-15.76,9.55,14.31-3.57,15.76-.8-6.33,7.7-6.33,7.7S195.09,173.05,198.25,176.46Z" style="fill:#fff;opacity:0.7000000000000001;isolation:isolate"></path><path d="M290.18,164.61s.11-29.06-30.21-28.87c0,0,9.72-4.49,8.07-24.7,0,0,1.32,20.9,7.77,20.65,5.36-.22,17.11-22.27,17.11-22.27s-12.25,25.19-7.76,30.2c2.84,3.17,30.73-5.86,30.73-5.86s-25.12,11.2-24.38,16,17.55,5.63,17.55,5.63-14.75-.15-15.51,2.88,7.94,6,7.94,6S292.46,160.56,290.18,164.61Z" style="fill:#fff;opacity:0.7000000000000001;isolation:isolate"></path></g></g></svg>